<?xml version="1.0" encoding="UTF-8" standalone="no"?>
<svg width="80px" height="46px" viewBox="0 0 80 46" version="1.1" xmlns="http://www.w3.org/2000/svg" xmlns:xlink="http://www.w3.org/1999/xlink" xmlns:sketch="http://www.bohemiancoding.com/sketch/ns">
    <!-- Generator: Sketch Beta 3.2.2 (9983) - http://www.bohemiancoding.com/sketch -->
    <title>arrow-down.svg</title>
    <desc>Created with Sketch Beta.</desc>
    <defs></defs>
    <g id="Page-1" stroke="none" stroke-width="1" fill="none" fill-rule="evenodd" sketch:type="MSPage">
        <g id="arrow-down.svg" sketch:type="MSLayerGroup" transform="translate(40.000000, 23.000000) rotate(-270.000000) translate(-40.000000, -23.000000) translate(17.000000, -17.000000)" fill="#FFFFFF">
            <path d="M42.4,44.3 C41.2,45.5 39.3,45.5 38.2,44.3 L1.4,7.5 C0.2,6.3 0.2,4.4 1.4,3.3 L3.5,1.2 C4.7,-6.21724894e-15 6.6,-6.21724894e-15 7.7,1.2 L44.5,37.9 C45.7,39.1 45.7,41 44.5,42.1 L42.4,44.3 L42.4,44.3 Z" id="Shape" sketch:type="MSShapeGroup"></path>
            <path d="M1.4,76.7 C0.2,75.5 0.2,73.6 1.4,72.5 L38.1,35.7 C39.3,34.5 41.2,34.5 42.3,35.7 L44.4,37.8 C45.6,39 45.6,40.9 44.4,42 L7.8,78.9 C6.6,80.1 4.7,80.1 3.6,78.9 L1.4,76.7 L1.4,76.7 Z" id="Shape" sketch:type="MSShapeGroup"></path>
        </g>
    </g>
</svg>