<?xml version="1.0" encoding="UTF-8" standalone="no"?>
<svg width="1440px" height="350px" viewBox="0 0 1440 350" version="1.1" xmlns="http://www.w3.org/2000/svg" xmlns:xlink="http://www.w3.org/1999/xlink" xmlns:sketch="http://www.bohemiancoding.com/sketch/ns">
    <!-- Generator: Sketch 3.1.1 (8761) - http://www.bohemiancoding.com/sketch -->
    <title>Path 86 + Path 87 + Path 88</title>
    <desc>Created with Sketch.</desc>
    <defs></defs>
    <g id="Page-1" stroke="none" stroke-width="1" fill="none" fill-rule="evenodd" sketch:type="MSPage">
        <g id="Desktop-HD-5" sketch:type="MSArtboardGroup" transform="translate(0.000000, -150.000000)" stroke="#67B4D6">
            <g id="Path-86-+-Path-87-+-Path-88" sketch:type="MSLayerGroup" transform="translate(720.320276, 324.151428) rotate(2.000000) translate(-720.320276, -324.151428) translate(-4.679724, 125.651428)">
                <path d="M5.12400734,369.24299 C27.314407,370.000241 50.4386798,373.868607 69.041828,371.037716 C80.2094408,369.338311 91.0328436,366.92614 102.254517,365.731138 C116.170658,364.249202 127.979373,352.989016 141.374634,348.055796 C176.735633,335.033014 213.174288,327.489764 248.770349,318.581434 C263.114928,314.991535 309.387594,302.844093 322.580012,295.599513 C334.949688,288.806741 341.624273,275.382883 355.012788,277.327926 C378.161397,280.690885 400.775686,295.946183 424.026814,300.316471 C450.398542,305.273308 478.021296,296.353113 504.11312,305.616424 C514.445346,309.284647 575.33339,301.177986 585.388175,306.194411 C614.346812,320.642141 626.58939,289.276072 656.658141,286.607265 C676.70557,284.827919 668.893617,311.946394 687.529635,301.495711 C719.399535,283.623747 756.126161,261.484767 790.129713,258.466719 C804.548313,257.18697 823.626588,251.181116 837.73761,258.466719 C876.471481,278.465243 880.47697,285.913017 924.096409,268.490255 C947.002835,259.34082 967.070933,257.681056 988.269373,241.750661 C1003.37276,230.400633 1019.82182,210.808699 1035.18012,200.710484 C1056.86593,186.451867 1120.35647,194.285786 1143.47149,185.054474 C1172.66826,173.394328 1204.16097,171.150748 1233.86082,168.089306 C1266.71162,164.703066 1254.21008,129.399619 1287.24559,129.399619 C1308.82653,129.399619 1331.07686,137.976482 1352.56748,134.706197 C1356.6251,134.088737 1361.68295,125.360697 1364.7474,122.913802 C1371.14549,117.805062 1373.20917,120.342311 1380.2461,115.84499 C1392.54123,107.987145 1405.54979,95.7103772 1416.78172,84.6083931 C1427.15643,74.3537091 1435.78085,59.7267222 1445.07957,47.8480909" id="Path-86" opacity="0.405492071" sketch:type="MSShapeGroup" transform="translate(725.101791, 209.953870) rotate(-2.000000) translate(-725.101791, -209.953870) "></path>
                <path d="M8.93453327,359.353454 C18.4088722,360.692775 29.7487747,367.95119 37.2141126,367.95119 C76.6197733,367.95119 115.667486,371.277023 154.93953,365.003092 C167.121039,363.057027 208.682166,355.152683 216.204205,350.269223 C225.061916,344.518618 231.868659,330.050964 239.456406,321.391105 C245.964733,313.963184 268.177192,299.42886 275.622809,296.050706 C295.892122,286.854307 362.667522,313.349443 388.183375,315.494908 C429.990793,319.010225 432.637631,294.019087 467.900467,288.385649 C539.64308,276.924361 619.698218,339.187671 690.806313,327.870297 C698.938505,326.576 705.314965,316.950703 713.320086,314.905288 C757.858769,303.525061 811.958259,234.397261 843.963853,227.091695 C864.097347,222.496044 890.234404,272.452739 908.956296,282.778783 C917.110012,287.275958 916.394892,259.966625 923.425046,255.478002 C933.557991,249.008305 951.550516,262.834949 966.12399,259.507531 C983.335075,255.577894 1000.30032,235.786197 1016.89184,228.226049 C1027.58814,223.352143 1109.21423,192.317142 1119.84106,187.222143 C1173.28566,161.59831 1157.01224,178.22138 1210.43597,152.243112 C1220.09453,147.546461 1272.49685,117.370437 1279.81921,115.699938 C1327.70097,104.776342 1395.02425,116.709625 1442.40316,112.063427" id="Path-87" opacity="0.405492071" sketch:type="MSShapeGroup"></path>
                <path d="M9.86040352,356.754103 C20.2981387,353.117955 30.9542069,349.872186 41.6812368,345.879962 C44.4394143,344.853466 61.0703495,331.085356 63.0873666,333.504573 C83.0355676,357.430509 93.9590036,374.967479 121.024965,364.15155 C124.020934,362.954319 123.757388,368.206013 127.210341,368.206013 C129.650735,368.206013 137.010625,366.024339 138.975416,368.206013 C140.433995,369.825599 142.700152,377.421306 145.069525,377.421306 C146.583052,377.421306 151.43496,391.051423 152.72761,387.954962 C160.15252,370.169055 174.984655,358.794974 185.5296,343.826231 C192.162897,334.410143 209.474205,284.461885 222.343165,293.94705 C229.274145,299.055582 222.57775,296.718479 231.569373,301.022487 C237.349168,303.789094 245.546412,299.216338 250.760217,302.784721 C264.200154,311.983158 267.606805,335.890237 290.249548,327.542126 C304.933775,322.128225 317.265303,300.229837 330.108094,288.640472 C338.553547,281.019275 346.892769,278.889793 355.202218,273.906604 C356.717752,272.997735 376.983454,302.050533 392.107049,308.091299 C419.916064,319.198958 451.498126,304.18686 479.573491,306.32244 C490.717489,307.170119 499.035091,322.141595 514.267186,325.183647 C542.639341,330.849943 586.309991,315.634348 610.428711,296.373047 C641.209389,271.791481 670.67527,294.924837 704.602539,291.052734 C759.446799,284.793386 794.469667,269.406069 849.737747,256.814256 C880.769674,249.744203 914.548132,251.847104 944.95354,239.728533 C952.436392,236.74612 971.305105,242.019054 979.048828,242.628906 C995.804469,243.948488 980.269531,229.466797 1005.85742,204.966797 C1031.44531,180.466797 1045.53597,229.525457 1057.25391,223.292969 C1071.83335,215.538509 1136.80594,172.772709 1148.5625,158.171875 C1168.28342,133.679851 1266.94179,142.622753 1291.125,131.890625 C1367.11817,98.1660586 1355.45137,82.800207 1426.57072,11.0488204 C1430.5149,7.06958449 1434.6337,3.34985809 1438.72565,-0.465153435" id="Path-88" opacity="0.405492071" sketch:type="MSShapeGroup"></path>
                <circle id="Oval-8" sketch:type="MSShapeGroup" cx="61.5" cy="332.5" r="5.5"></circle>
                <circle id="Oval-9" sketch:type="MSShapeGroup" cx="151.5" cy="387.5" r="5.5"></circle>
                <circle id="Oval-9" sketch:type="MSShapeGroup" cx="257.5" cy="308.5" r="5.5"></circle>
                <circle id="Oval-9" sketch:type="MSShapeGroup" cx="424.5" cy="310.5" r="5.5"></circle>
                <circle id="Oval-10" sketch:type="MSShapeGroup" cx="588.5" cy="309.5" r="5.5"></circle>
                <circle id="Oval-10" sketch:type="MSShapeGroup" cx="1023.5" cy="199.5" r="5.5"></circle>
                <circle id="Oval-10" sketch:type="MSShapeGroup" cx="913.5" cy="283.5" r="5.5"></circle>
                <circle id="Oval-10" sketch:type="MSShapeGroup" cx="1259.5" cy="124.5" r="5.5"></circle>
                <circle id="Oval-10" sketch:type="MSShapeGroup" cx="1131.5" cy="173.5" r="5.5"></circle>
                <circle id="Oval-10" sketch:type="MSShapeGroup" cx="1407.5" cy="67.5" r="5.5"></circle>
            </g>
        </g>
    </g>
</svg>