<?xml version="1.0" encoding="utf-8"?>
<!-- Generator: Adobe Illustrator 18.1.0, SVG Export Plug-In . SVG Version: 6.00 Build 0)  -->
<!DOCTYPE svg PUBLIC "-//W3C//DTD SVG 1.1//EN" "http://www.w3.org/Graphics/SVG/1.1/DTD/svg11.dtd">
<svg version="1.1" id="Layer_1" xmlns:sketch="http://www.bohemiancoding.com/sketch/ns"
	 xmlns="http://www.w3.org/2000/svg" xmlns:xlink="http://www.w3.org/1999/xlink" x="0px" y="0px" viewBox="876 54.1 2552 418.5"
	 enable-background="new 876 54.1 2552 418.5" xml:space="preserve">
<title>Path 86 + Path 87 + Path 88</title>
<desc>Created with Sketch.</desc>
<circle id="Oval-8" sketch:type="MSShapeGroup" fill="none" stroke="#67B4D6" cx="1483.5" cy="401.9" r="5.5">
</circle>
<circle id="Oval-9" sketch:type="MSShapeGroup" fill="none" stroke="#67B4D6" cx="1571.6" cy="460" r="5.5">
</circle>
<circle id="Oval-9_1_" sketch:type="MSShapeGroup" fill="none" stroke="#67B4D6" cx="1680.3" cy="384.8" r="5.5">
</circle>
<circle id="Oval-9_2_" sketch:type="MSShapeGroup" fill="none" stroke="#67B4D6" cx="1847.1" cy="392.6" r="5.5">
</circle>
<circle id="Oval-10" sketch:type="MSShapeGroup" fill="none" stroke="#67B4D6" cx="2011" cy="397.3" r="5.5">
</circle>
<circle id="Oval-10_1_" sketch:type="MSShapeGroup" fill="none" stroke="#67B4D6" cx="2449.6" cy="302.6" r="5.5">
</circle>
<circle id="Oval-10_2_" sketch:type="MSShapeGroup" fill="none" stroke="#67B4D6" cx="2336.7" cy="382.7" r="5.5">
</circle>
<circle id="Oval-10_3_" sketch:type="MSShapeGroup" fill="none" stroke="#67B4D6" cx="2688.1" cy="235.9" r="5.5">
</circle>
<circle id="Oval-10_4_" sketch:type="MSShapeGroup" fill="none" stroke="#67B4D6" cx="2558.4" cy="280.4" r="5.5">
</circle>
<circle id="Oval-10_5_" sketch:type="MSShapeGroup" fill="none" stroke="#67B4D6" cx="2838" cy="184.1" r="5.5">
</circle>
<path id="Path-15_2_" opacity="0.41" fill="none" stroke="#67B4D6" d="M3426.4,128.8c-43,13.7-81.5,7.5-133.4,18.3
	c-19.3,4.1-55.3-5.5-80.1,6.3c-30.5,10.2-35.8,37.8-69,40.3c-37.8,2.9-59.7-23.8-83.1-19.9c-5.6,0.9-10.6,4.6-15.9,6.7
	c-5.3,2.1-63.4,13.7-74.3,15.8c-15.2,2.9-12.8,9.5-32.7,9c-5.8-0.2-20.8-7.8-25.1-2.5c-5.5,7-9.2,19-19.6,22.9
	c-10.4,3.8-16.8,3.3-21.9,3.9l-0.2,0.2c-47.5,3-114.4-11.3-162.6-2c-7.4,1.4-60.8,29.7-70.6,34.1c-54.3,24.1-37.5,8.1-91.8,31.8
	c-10.8,4.7-93.5,32.9-104.3,37.4c-16.8,7-34.5,26.2-51.8,29.5c-14.7,2.8-32.2-11.6-42.5-5.5c-7.2,4.2-7.4,31.6-15.4,26.8
	c-18.4-11-42.7-61.8-63-57.9c-32.2,6.2-88.7,73.4-133.6,83.2c-8.1,1.8-14.8,11.2-23,12.2c-71.5,8.8-149.3-56.2-221.4-47.2
	c-35.4,4.4-39,29.3-80.6,24.3c-25.4-3-91.2-31.8-111.8-23.4c-7.6,3.1-30.3,16.9-37,24.1c-7.9,8.4-15.2,22.6-24.2,28
	c-7.7,4.6-49.5,11.1-61.7,12.6c-39.5,4.9-78.4,0.2-117.8-1.2c-7.5-0.3-18.9-6.5-28-9.6c-6.8-2.4-19.2-10.2-25.5-13.6
	c-7.8-4.2-15.2-31.9-21-26.5c-2.7,2.5-14,18.6-20.1,21.9c-14.6,8.1-35.4,5.5-51.8,10.4c-25.8,7.6-32.5,23.2-61,25.3
	c-18,1.4-32.9-11.7-46.9-19.4c-4.6-2.5-24.3-19.7-38.3-18.5c-12.9,1.2-26.4,0-57.3-2c-27.2-1.8-41.4-18.5-53.5-12
	c-10.4,5.6,3.3,29.4-21,42.4c-17.7,11-16.5,0.6-22.7,4.1c-11,6.1-37,0.3-50.2,3.1c-22.6,4.8-56.9,7.7-84.7,8.1"/>
<path id="Path-16_2_" opacity="0.41" fill="none" stroke="#67B4D6" d="M3427,90.8c-26.1-5.4-44.5-33.6-77-29.8
	c-29.4,3.5-67.1,45-95,55c-8.9,3.2-25.5,27.7-34.5,31.6c-14.5,6.2-36.6-3.6-47.7,1.5c-21.5,9.8-44.7,36.6-68.3,48.3
	c-13.1,6.5-29.2-9.5-46.6,0.1c-32.1,17.7-26.7,40.7-73.7,20c-16.1-7.1-47.7-19.9-63.3-59.2c-5.5-13.8-16.6-5.8-30.6-18
	c-8.9-7.8-13.4-0.8-18.9,8.2c-7.9,12.9-18.4,18.5-28.8,28.8c-11.2,11.1-24.2,23.4-36.5,31.2c-7,4.5-9.1,2-15.5,7.1
	c-3.1,2.4-8.1,11.2-12.2,11.8c-21.5,3.3-43.7-5.3-65.3-5.3c-33,0-20.5,35.3-53.4,38.7c-29.7,3.1-61.2,5.3-90.4,17
	c-23.1,9.2-86.6,1.4-108.3,15.7c-15.4,10.1-31.8,29.7-46.9,41c-21.2,15.9-41.3,17.6-64.2,26.7c-43.6,17.4-47.6,10-86.4-10
	c-14.1-7.3-33.2-1.3-47.6,0c-34,3-70.7,25.2-102.6,43c-18.6,10.5-10.8-16.7-30.9-14.9c-30.1,2.7-42.3,34-71.3,19.6
	c-10.1-5-70.9,3.1-81.3-0.6c-26.1-9.3-53.7-0.3-80.1-5.3c-23.3-4.4-45.9-19.6-69-23c-13.4-1.9-20.1,11.5-32.4,18.3
	c-13.2,7.2-59.5,19.4-73.8,23c-35.6,8.9-72,16.5-107.4,29.5c-13.4,4.9-25.2,16.2-39.1,17.7c-11.2,1.2-22,3.6-33.2,5.3
	c-18.6,2.8-84.4-0.9-90.1-2.3c-7.9-1.9-15.5-3-23.1-5.3c-11.3-3.5-19.4-11.2-30.4-15c-24.4-8.2-48.8-17.2-72.1-25.1
	c-8.9-3-24.4-11.9-34.8-8.2c-18.2,6.6-43.1,4.9-60.7,13.8c-23.9,12-45.1-37.4-70.5-33.4c-21.5,3.3-37.1,73.6-59.4,72.8
	c-35.6-1.5-21.2-31.8-54.7-45c-8.6-3.4-18.8-23.7-28-24.2c-23-1.1-34.7,30.8-88.8,23.8c-1.6-0.2-3.7,0-6.2,0.5"/>
<path id="Path-17_3_" opacity="0.41" fill="none" stroke="#67B4D6" d="M3428,139.5c-30.1-1.1-51.7-41.4-84.5-36
	c-43.2,7.1-72.2,65.1-121.1,60.7c-26.9-2.4-78.1-25.4-92.3-23c-21.4,3.6-28.3,7.9-42.4,10.7c-8.5,1.7-16-0.1-25,2.6
	c-12.9,3.8-26.2,10-39.1,14.3c-7.8,2.6-18.7-17.2-22.7-15.4c-8.8,4-7.4,15.4-19.8,12.5c-38.2-9-61.7-26.1-93.9-47.6
	c-5.6-3.8-13.9-1.7-15.6-1c-5.2,2.2-8.5,7.2-12.5,11.1c-73.6,69.2-62.5,85-139.6,116c-24.5,9.9-122.8-2.5-143.4,21.3
	c-12.3,14.2-78.7,54.7-93.5,61.9c-11.9,5.8-24.3-43.7-50.7-20.1c-26.4,23.6-11.4,38.6-28.1,36.7c-7.7-0.9-26.4-6.8-34-4.1
	c-30.8,11.1-64.5,7.8-95.8,13.8c-55.7,10.7-91.2,24.8-146.2,29.2c-34,2.7-62.7-21.5-94.3,2c-24.8,18.4-69,32.1-97.1,25.4
	c-15.1-3.6-22.9-18.8-34-20.1c-28-3.1-60.1,10.8-87.5-1.3c-14.9-6.6-34.1-36.3-35.7-35.5c-8.5,4.7-16.9,6.5-25.6,13.8
	c-13.2,11.1-26.3,32.6-41.2,37.5c-22.9,7.6-25.5-16.5-38.6-26.1c-5.1-3.7-13.4,0.5-19.1-2.4c-8.8-4.6-2.2-2-9-7.4
	c-12.5-9.9-31.6,39.4-38.5,48.6c-11.1,14.6-26.3,25.4-34.3,43c-1.4,3-5.8-10.7-7.3-10.8c-2.4-0.1-4.4-7.8-5.8-9.4
	c-1.9-2.2-9.3-0.3-11.8-0.4c-3.5-0.1-3-5.4-6-4.3c-27.4,9.9-37.7-8-56.8-32.7c-1.9-2.5-19,10.7-21.8,11.6c-10.9,3.6-21.8,6-32.2,9.8
	c-3.1,1.1-9,3.9-12.1,5c-7.4,2.5-8.6,3-18.9-2.6c-7.9-4.3-15.5-4.5-22.2-7c-20.8-7.7-60.5-18.5-80-0.3c-2.2,2-5.7,1.5-8.7,1.7
	c-14.6,1.1-25.2,3.8-38.4,5.9c-40,6.6-82.3,4.4-123.8,8.9c-29.1,3.1-116.2-9.1-136.8-3c-35,10.3-73.9,26.6-114.3,28.5"/>
</svg>
