<?xml version="1.0" encoding="utf-8"?>
<!-- Generator: Adobe Illustrator 18.1.1, SVG Export Plug-In . SVG Version: 6.00 Build 0)  -->
<svg version="1.1" id="Layer_1" xmlns="http://www.w3.org/2000/svg" xmlns:xlink="http://www.w3.org/1999/xlink" x="0px" y="0px"
	 viewBox="0 0 157.6 117.9" enable-background="new 0 0 157.6 117.9" xml:space="preserve">
<g>
	<g>
		<polyline fill="none" stroke="#0A82BA" stroke-linecap="round" stroke-linejoin="round" stroke-miterlimit="10" points="6.2,50.4 
			30.6,25.9 54.1,49.2 96.4,6.9 125.2,34.7 152.3,5.2 		"/>
		<polygon fill="#F5F8FB" stroke="#0A82BA" stroke-linecap="round" stroke-linejoin="round" stroke-miterlimit="10" points="
			134.5,6.7 157.1,0.7 151,23.3 		"/>
		
			<circle fill="#F5F8FB" stroke="#0A82BA" stroke-linecap="round" stroke-linejoin="round" stroke-miterlimit="10" cx="30.6" cy="25.3" r="5.9"/>
		
			<circle fill="#F5F8FB" stroke="#0A82BA" stroke-linecap="round" stroke-linejoin="round" stroke-miterlimit="10" cx="60" cy="49.4" r="5.9"/>
		
			<circle fill="#F5F8FB" stroke="#0A82BA" stroke-linecap="round" stroke-linejoin="round" stroke-miterlimit="10" cx="122.6" cy="36.3" r="5.9"/>
		
			<circle fill="#F5F8FB" stroke="#0A82BA" stroke-linecap="round" stroke-linejoin="round" stroke-miterlimit="10" cx="96.1" cy="6.4" r="5.9"/>
		
			<circle fill="#F5F8FB" stroke="#0A82BA" stroke-linecap="round" stroke-linejoin="round" stroke-miterlimit="10" cx="6.4" cy="50.3" r="5.9"/>
	</g>
	<g>
		<path fill="#F5F8FB" stroke="#0A82BA" stroke-linecap="round" stroke-linejoin="round" stroke-miterlimit="10" d="M43.5,56.7
			c0,0,3.4,16.6,9.6,22.8s29.8,29.8,29.8,29.8l36.5-36.5c0,0-20.5-20.6-30.8-30.9S66,34.2,66,34.2L43.5,56.7z"/>
		
			<rect x="24.2" y="30.3" transform="matrix(0.7071 -0.7071 0.7071 0.7071 -13.2095 47.2574)" fill="#F5F8FB" stroke="#0A82BA" stroke-linecap="round" stroke-linejoin="round" stroke-miterlimit="10" width="52.5" height="18.5"/>
	</g>
	<g>
		<path fill="#F5F8FB" stroke="#0A82BA" stroke-linecap="round" stroke-linejoin="round" stroke-miterlimit="10" d="M109.7,35.3
			c0,0-12.3-2.5-22.6,7.7C81.1,49,64,65.6,63.6,66L50.9,78.7c-2.6,2.6-2.7,7.1-0.1,9.7l0,0c2.2,2.2,6.5,1.7,9.1,0.1
			c-1.7,2.6-2,6.7,0.2,8.9s6.4,1.8,9,0.2c-1.7,2.6-2,6.7,0.2,9s6.4,1.8,9,0.2c-1.7,2.6-2.2,6.6,0.1,8.9c2.6,2.6,6.7,2.5,9.3-0.1l5-5
			l0,0c0,0,23.7-23.7,29.8-29.8c6.1-6.1,9.6-22.8,9.6-22.8L109.7,35.3z"/>
		
			<rect x="98.9" y="31.4" transform="matrix(-0.7071 -0.7071 0.7071 -0.7071 184.9548 157.9209)" fill="#F5F8FB" stroke="#0A82BA" stroke-miterlimit="10" width="52.5" height="18.5"/>
	</g>
	<path fill="#F5F8FB" stroke="#0A82BA" stroke-linecap="round" stroke-linejoin="round" stroke-miterlimit="10" d="M97.1,114.6
		L97.1,114.6c-2.6,2.6-6.8,2.6-9.4,0L75,101.9c-2.6-2.6-2.6-6.8,0-9.4l0,0c2.6-2.6,6.8-2.6,9.4,0l12.7,12.7
		C99.7,107.8,99.7,112,97.1,114.6z"/>
	<path fill="#F5F8FB" stroke="#0A82BA" stroke-linecap="round" stroke-linejoin="round" stroke-miterlimit="10" d="M106.2,105.4
		L106.2,105.4c-2.6,2.6-6.8,2.6-9.4,0L84.2,92.7c-2.6-2.6-2.6-6.8,0-9.4l0,0c2.6-2.6,6.8-2.6,9.4,0l12.7,12.7
		C108.8,98.7,108.8,102.8,106.2,105.4z"/>
	<path fill="#F5F8FB" stroke="#0A82BA" stroke-linecap="round" stroke-linejoin="round" stroke-miterlimit="10" d="M115.4,96.3
		L115.4,96.3c-2.6,2.6-6.8,2.6-9.4,0L93.3,83.6c-2.6-2.6-2.6-6.8,0-9.4l0,0c2.6-2.6,6.8-2.6,9.4,0l12.7,12.7
		C117.9,89.5,117.9,93.7,115.4,96.3z"/>
	<path fill="#F5F8FB" stroke="#0A82BA" stroke-linecap="round" stroke-linejoin="round" stroke-miterlimit="10" d="M124.5,87.1
		L124.5,87.1c-2.6,2.6-6.8,2.6-9.4,0l-12.7-12.7c-2.6-2.6-2.6-6.8,0-9.4l0,0c2.6-2.6,6.8-2.6,9.4,0l12.7,12.7
		C127.1,80.4,127.1,84.6,124.5,87.1z"/>
	<path fill="#F5F8FB" stroke="#0A82BA" stroke-linecap="round" stroke-linejoin="round" stroke-miterlimit="10" d="M87.1,40.7
		l7.1,7.8c5.7,5.7-3.5,14.8-9.2,9.2l-7.6-7.6"/>
	
		<circle fill="none" stroke="#0A82BA" stroke-linecap="round" stroke-linejoin="round" stroke-miterlimit="10" cx="36.5" cy="52.8" r="2.7"/>
	
		<circle fill="none" stroke="#0A82BA" stroke-linecap="round" stroke-linejoin="round" stroke-miterlimit="10" cx="113.5" cy="27.8" r="2.7"/>
</g>
</svg>
