<?xml version="1.0" encoding="utf-8"?>
<!-- Generator: Adobe Illustrator 18.1.1, SVG Export Plug-In . SVG Version: 6.00 Build 0)  -->
<svg version="1.1" id="Layer_1" xmlns="http://www.w3.org/2000/svg" xmlns:xlink="http://www.w3.org/1999/xlink" x="0px" y="0px"
	 viewBox="0 0 167.6 134" enable-background="new 0 0 167.6 134" xml:space="preserve">
<g>
	<g>
		<polyline fill="none" stroke="#0A82BA" stroke-linecap="round" stroke-linejoin="round" stroke-miterlimit="10" points="6.3,125 
			28.9,74.4 56.8,115.4 117.9,19.3 144.9,45.1 159.4,11.6 		"/>
		<polygon fill="#F5F8FB" stroke="#0A82BA" stroke-linecap="round" stroke-linejoin="round" stroke-miterlimit="10" points="
			145.9,14 165.1,0.5 167.1,23.8 		"/>
		
			<circle fill="#F5F8FB" stroke="#0A82BA" stroke-linecap="round" stroke-linejoin="round" stroke-miterlimit="10" cx="29.2" cy="75.8" r="5.9"/>
		
			<circle fill="#F5F8FB" stroke="#0A82BA" stroke-linecap="round" stroke-linejoin="round" stroke-miterlimit="10" cx="56.6" cy="114.8" r="5.9"/>
		
			<circle fill="#F5F8FB" stroke="#0A82BA" stroke-linecap="round" stroke-linejoin="round" stroke-miterlimit="10" cx="143.7" cy="43.2" r="5.9"/>
		
			<circle fill="#F5F8FB" stroke="#0A82BA" stroke-linecap="round" stroke-linejoin="round" stroke-miterlimit="10" cx="117.8" cy="20.9" r="5.9"/>
		
			<circle fill="#F5F8FB" stroke="#0A82BA" stroke-linecap="round" stroke-linejoin="round" stroke-miterlimit="10" cx="6.4" cy="124.7" r="5.9"/>
	</g>
	<g>
		<g>
			<path fill="#F5F8FB" stroke="#0A82BA" stroke-linecap="round" stroke-linejoin="round" stroke-miterlimit="10" d="M98.7,82.5
				H52.2l-21,19l2.7-19H18.4c-4,0-7.3-3.6-7.3-8V30.7c0-4.4,3.3-8,7.3-8h80.3c4,0,7.3,3.6,7.3,8v43.8C106,78.9,102.8,82.5,98.7,82.5
				z"/>
			
				<line fill="none" stroke="#0A82BA" stroke-linecap="round" stroke-linejoin="round" stroke-miterlimit="10" x1="26.4" y1="38.5" x2="93.4" y2="38.5"/>
			
				<line fill="none" stroke="#0A82BA" stroke-linecap="round" stroke-linejoin="round" stroke-miterlimit="10" x1="26.4" y1="48.5" x2="93.4" y2="48.5"/>
			
				<line fill="none" stroke="#0A82BA" stroke-linecap="round" stroke-linejoin="round" stroke-miterlimit="10" x1="26.4" y1="58.5" x2="93.4" y2="58.5"/>
		</g>
		
			<line fill="none" stroke="#0A82BA" stroke-linecap="round" stroke-linejoin="round" stroke-miterlimit="10" x1="26.4" y1="68.5" x2="93.4" y2="68.5"/>
	</g>
	<g>
		<path fill="#F5F8FB" stroke="#0A82BA" stroke-linecap="round" stroke-linejoin="round" stroke-miterlimit="10" d="M78.4,114.5H125
			l21,19l-2.7-19h15.5c4,0,7.3-3.6,7.3-8V62.7c0-4.4-3.3-8-7.3-8H78.4c-4,0-7.3,3.6-7.3,8v43.8C71.2,110.9,74.4,114.5,78.4,114.5z"
			/>
		
			<line fill="none" stroke="#0A82BA" stroke-linecap="round" stroke-linejoin="round" stroke-miterlimit="10" x1="150.4" y1="69.5" x2="83.4" y2="69.5"/>
		
			<line fill="none" stroke="#0A82BA" stroke-linecap="round" stroke-linejoin="round" stroke-miterlimit="10" x1="150.4" y1="79.5" x2="83.4" y2="79.5"/>
		
			<line fill="none" stroke="#0A82BA" stroke-linecap="round" stroke-linejoin="round" stroke-miterlimit="10" x1="150.4" y1="89.5" x2="83.4" y2="89.5"/>
		
			<line fill="none" stroke="#0A82BA" stroke-linecap="round" stroke-linejoin="round" stroke-miterlimit="10" x1="150.4" y1="99.5" x2="83.4" y2="99.5"/>
	</g>
	<path fill="none" stroke="#0A82BA" stroke-linecap="round" stroke-linejoin="round" stroke-miterlimit="10" d="M15.8,34
		c-0.3-4.7,1.5-7.5,6.9-6.9"/>
	<path fill="none" stroke="#0A82BA" stroke-linecap="round" stroke-linejoin="round" stroke-miterlimit="10" d="M75.8,67
		c-0.3-4.7,1.5-7.5,6.9-6.9"/>
</g>
</svg>
