<?xml version="1.0" encoding="utf-8"?>
<!-- Generator: Adobe Illustrator 18.1.1, SVG Export Plug-In . SVG Version: 6.00 Build 0)  -->
<svg version="1.1" id="Layer_1" xmlns="http://www.w3.org/2000/svg" xmlns:xlink="http://www.w3.org/1999/xlink" x="0px" y="0px"
	 viewBox="0 0 181.4 119.2" enable-background="new 0 0 181.4 119.2" xml:space="preserve">
<g>
	<g>
		<polyline fill="none" stroke="#0A82BA" stroke-linecap="round" stroke-linejoin="round" stroke-miterlimit="10" points="4.5,85.9 
			47.6,13.3 70.8,58.4 107.3,12.6 139.4,49.1 169.4,16.4 		"/>
		<polygon fill="#F5F8FB" stroke="#0A82BA" stroke-linecap="round" stroke-linejoin="round" stroke-miterlimit="10" points="
			159.5,10 180.9,0.5 178.4,23.8 		"/>
		
			<circle fill="#F5F8FB" stroke="#0A82BA" stroke-linecap="round" stroke-linejoin="round" stroke-miterlimit="10" cx="46.6" cy="15.2" r="5.9"/>
		
			<circle fill="#F5F8FB" stroke="#0A82BA" stroke-linecap="round" stroke-linejoin="round" stroke-miterlimit="10" cx="55" cy="75.3" r="5.9"/>
		
			<circle fill="#F5F8FB" stroke="#0A82BA" stroke-linecap="round" stroke-linejoin="round" stroke-miterlimit="10" cx="146.6" cy="45.2" r="5.9"/>
		
			<circle fill="#F5F8FB" stroke="#0A82BA" stroke-linecap="round" stroke-linejoin="round" stroke-miterlimit="10" cx="108.1" cy="12.2" r="5.9"/>
		
			<circle fill="#F5F8FB" stroke="#0A82BA" stroke-linecap="round" stroke-linejoin="round" stroke-miterlimit="10" cx="6.4" cy="82.1" r="5.9"/>
	</g>
	
		<rect x="37.9" y="51.7" fill="#F5F8FB" stroke="#0A82BA" stroke-linecap="round" stroke-linejoin="round" stroke-miterlimit="10" width="139.1" height="67"/>
	
		<rect x="30" y="43.9" fill="#F5F8FB" stroke="#0A82BA" stroke-linecap="round" stroke-linejoin="round" stroke-miterlimit="10" width="139.1" height="67"/>
	<g>
		
			<rect x="21.5" y="34.3" fill="#F5F8FB" stroke="#0A82BA" stroke-linecap="round" stroke-linejoin="round" stroke-miterlimit="10" width="139.1" height="67"/>
		<g>
			<path fill="none" stroke="#0A82BA" stroke-miterlimit="10" d="M50.7,68.1c0-10.5,4.9-19.5,12.8-26.5h-33v53h33
				C55.7,88.6,50.7,78.6,50.7,68.1z"/>
			<path fill="none" stroke="#0A82BA" stroke-miterlimit="10" d="M152.5,41.6h-33.8c7.9,7,12.8,16,12.8,26.5s-4.9,20.6-12.8,26.5
				h33.8V41.6z"/>
		</g>
		<g>
			
				<circle fill="#F5F8FB" stroke="#0A82BA" stroke-linecap="round" stroke-linejoin="round" stroke-miterlimit="10" cx="85" cy="64.4" r="4.7"/>
			
				<circle fill="#F5F8FB" stroke="#0A82BA" stroke-linecap="round" stroke-linejoin="round" stroke-miterlimit="10" cx="97.5" cy="74" r="4.7"/>
			
				<line fill="none" stroke="#0A82BA" stroke-linecap="round" stroke-linejoin="round" stroke-miterlimit="10" x1="100.2" y1="60.2" x2="82.2" y2="78.2"/>
		</g>
	</g>
</g>
</svg>
