<?xml version="1.0" encoding="utf-8"?>
<!-- Generator: Adobe Illustrator 18.1.1, SVG Export Plug-In . SVG Version: 6.00 Build 0)  -->
<svg version="1.1" id="Layer_1" xmlns="http://www.w3.org/2000/svg" xmlns:xlink="http://www.w3.org/1999/xlink" x="0px" y="0px"
	 viewBox="0 0 177.4 148.7" enable-background="new 0 0 177.4 148.7" xml:space="preserve">
<g>
	<g>
		<polyline fill="none" stroke="#0A82BA" stroke-linecap="round" stroke-linejoin="round" stroke-miterlimit="10" points="7.2,85.3 
			21.6,51.7 50.9,78.2 103.3,12.6 142.8,45.1 165.4,16.4 		"/>
		<polygon fill="#F5F8FB" stroke="#0A82BA" stroke-linecap="round" stroke-linejoin="round" stroke-miterlimit="10" points="
			155.5,10 176.9,0.5 174.4,23.8 		"/>
		
			<circle fill="#F5F8FB" stroke="#0A82BA" stroke-linecap="round" stroke-linejoin="round" stroke-miterlimit="10" cx="21.6" cy="51.2" r="5.9"/>
		
			<circle fill="#F5F8FB" stroke="#0A82BA" stroke-linecap="round" stroke-linejoin="round" stroke-miterlimit="10" cx="51" cy="75.3" r="5.9"/>
		
			<circle fill="#F5F8FB" stroke="#0A82BA" stroke-linecap="round" stroke-linejoin="round" stroke-miterlimit="10" cx="142.6" cy="45.2" r="5.9"/>
		
			<circle fill="#F5F8FB" stroke="#0A82BA" stroke-linecap="round" stroke-linejoin="round" stroke-miterlimit="10" cx="104.1" cy="12.2" r="5.9"/>
		
			<circle fill="#F5F8FB" stroke="#0A82BA" stroke-linecap="round" stroke-linejoin="round" stroke-miterlimit="10" cx="6.4" cy="86.1" r="5.9"/>
	</g>
	<g>
		<path fill="#F5F8FB" stroke="#0A82BA" stroke-linecap="round" stroke-linejoin="round" stroke-miterlimit="10" d="M141.1,120.8
			H43.9c-5.1,0-9.3-4.2-9.3-9.3V38c0-5.1,4.2-9.3,9.3-9.3h97.1c5.1,0,9.3,4.2,9.3,9.3v73.4C150.4,116.6,146.2,120.8,141.1,120.8z"/>
		
			<circle fill="none" stroke="#0A82BA" stroke-linecap="round" stroke-linejoin="round" stroke-miterlimit="10" cx="111.5" cy="38.5" r="3.1"/>
		
			<circle fill="none" stroke="#0A82BA" stroke-linecap="round" stroke-linejoin="round" stroke-miterlimit="10" cx="123.2" cy="38.5" r="3.1"/>
		
			<circle fill="none" stroke="#0A82BA" stroke-linecap="round" stroke-linejoin="round" stroke-miterlimit="10" cx="134.9" cy="38.5" r="3.1"/>
		<line fill="none" stroke="#0A82BA" stroke-linejoin="round" stroke-miterlimit="10" x1="34" y1="47.6" x2="151" y2="47.6"/>
	</g>
	
		<rect x="44.4" y="56.2" fill="#F5F8FB" stroke="#0A82BA" stroke-linecap="round" stroke-linejoin="round" stroke-miterlimit="10" width="97.1" height="55"/>
	<path fill="#F5F8FB" stroke="#0A82BA" stroke-linecap="round" stroke-linejoin="round" stroke-miterlimit="10" d="M128,101.8H61.6
		c-1.6,0-3-1.4-3-3V81c0-1.7,1.4-3,3-3H128c1.6,0,3,1.3,3,3v17.8C131,100.4,129.6,101.8,128,101.8z"/>
	<g>
		<g>
			<g>
				<polygon fill="#F5F8FB" stroke="#0A82BA" stroke-linecap="round" stroke-linejoin="round" stroke-miterlimit="10" points="
					147.6,108 91.4,89.4 109.7,146 121.6,126.2 143.6,148.2 149.2,142.6 127.2,120.5 				"/>
			</g>
		</g>
		
			<line fill="none" stroke="#0A82BA" stroke-linecap="round" stroke-linejoin="round" stroke-miterlimit="10" x1="101" y1="100.6" x2="111.3" y2="130.9"/>
	</g>
</g>
</svg>
