<?xml version="1.0" encoding="utf-8"?>
<!-- Generator: Adobe Illustrator 18.1.1, SVG Export Plug-In . SVG Version: 6.00 Build 0)  -->
<svg version="1.1" id="Layer_1" xmlns="http://www.w3.org/2000/svg" xmlns:xlink="http://www.w3.org/1999/xlink" x="0px" y="0px"
	 viewBox="0 0 162 136.4" enable-background="new 0 0 162 136.4" xml:space="preserve">
<g>
	<g>
		<polyline fill="none" stroke="#0A82BA" stroke-linecap="round" stroke-linejoin="round" stroke-miterlimit="10" points="6.2,62.2 
			29.4,26.6 55,60.5 97.1,6.7 123.9,50.4 148.1,23.1 		"/>
		<polygon fill="#F5F8FB" stroke="#0A82BA" stroke-linecap="round" stroke-linejoin="round" stroke-miterlimit="10" points="
			139.6,15.2 161.5,6.9 157.7,30 		"/>
		
			<circle fill="#F5F8FB" stroke="#0A82BA" stroke-linecap="round" stroke-linejoin="round" stroke-miterlimit="10" cx="29.7" cy="27.1" r="5.9"/>
		
			<circle fill="#F5F8FB" stroke="#0A82BA" stroke-linecap="round" stroke-linejoin="round" stroke-miterlimit="10" cx="55" cy="59.6" r="5.9"/>
		
			<circle fill="#F5F8FB" stroke="#0A82BA" stroke-linecap="round" stroke-linejoin="round" stroke-miterlimit="10" cx="124.9" cy="47.6" r="5.9"/>
		
			<circle fill="#F5F8FB" stroke="#0A82BA" stroke-linecap="round" stroke-linejoin="round" stroke-miterlimit="10" cx="98" cy="6.4" r="5.9"/>
		
			<circle fill="#F5F8FB" stroke="#0A82BA" stroke-linecap="round" stroke-linejoin="round" stroke-miterlimit="10" cx="6.4" cy="61.7" r="5.9"/>
	</g>
	<g>
		<path fill="#F5F8FB" stroke="#0A82BA" stroke-linecap="round" stroke-linejoin="round" stroke-miterlimit="10" d="M132.9,112.8
			H50.3c-5.1,0-9.3-4.2-9.3-9.3V41.7c0-5.1,4.2-9.3,9.3-9.3h82.6c5.1,0,9.3,4.2,9.3,9.3v61.9C142.3,108.7,138.1,112.8,132.9,112.8z"
			/>
	</g>
	<g>
		<path fill="#F5F8FB" stroke="#0A82BA" stroke-linecap="round" stroke-linejoin="round" stroke-miterlimit="10" d="M124.9,123.9
			H42.3c-5.1,0-9.3-4.2-9.3-9.3V52.7c0-5.1,4.2-9.3,9.3-9.3h82.6c5.1,0,9.3,4.2,9.3,9.3v61.9C134.2,119.7,130,123.9,124.9,123.9z"/>
	</g>
	<g>
		<path fill="#F5F8FB" stroke="#0A82BA" stroke-linecap="round" stroke-linejoin="round" stroke-miterlimit="10" d="M115.9,135.9
			H33.3c-5.1,0-9.3-4.2-9.3-9.3V64.7c0-5.1,4.2-9.3,9.3-9.3h82.6c5.1,0,9.3,4.2,9.3,9.3v61.9C125.2,131.7,121,135.9,115.9,135.9z"/>
		
			<circle fill="none" stroke="#0A82BA" stroke-linecap="round" stroke-linejoin="round" stroke-miterlimit="10" cx="91.2" cy="64" r="2.7"/>
		
			<circle fill="none" stroke="#0A82BA" stroke-linecap="round" stroke-linejoin="round" stroke-miterlimit="10" cx="101.4" cy="64" r="2.7"/>
		
			<circle fill="none" stroke="#0A82BA" stroke-linecap="round" stroke-linejoin="round" stroke-miterlimit="10" cx="111.7" cy="64" r="2.7"/>
		<line fill="none" stroke="#0A82BA" stroke-linejoin="round" stroke-miterlimit="10" x1="23.8" y1="71.9" x2="125.8" y2="71.9"/>
		<g>
			<polyline fill="none" stroke="#0A82BA" stroke-linecap="round" stroke-linejoin="round" stroke-miterlimit="10" points="
				59.3,89.3 45.4,103.2 59.7,117.5 			"/>
			<polyline fill="none" stroke="#0A82BA" stroke-linecap="round" stroke-linejoin="round" stroke-miterlimit="10" points="
				92.3,89.3 106.2,103.2 91.9,117.5 			"/>
			
				<line fill="none" stroke="#0A82BA" stroke-linecap="round" stroke-linejoin="round" stroke-miterlimit="10" x1="84.2" y1="86.1" x2="68.5" y2="120.1"/>
		</g>
	</g>
</g>
</svg>
