<?xml version="1.0" encoding="utf-8"?>
<!-- Generator: Adobe Illustrator 18.1.1, SVG Export Plug-In . SVG Version: 6.00 Build 0)  -->
<svg version="1.1" id="Layer_1" xmlns="http://www.w3.org/2000/svg" xmlns:xlink="http://www.w3.org/1999/xlink" x="0px" y="0px"
	 viewBox="0 0 149.9 137.3" enable-background="new 0 0 149.9 137.3" xml:space="preserve">
<g>
	<polyline fill="none" stroke="#0A82BA" stroke-linecap="round" stroke-linejoin="round" stroke-miterlimit="10" points="0.5,31.2 
		0.5,124.7 97,124.7 	"/>
	<g>
		<polyline fill="none" stroke="#0A82BA" stroke-linecap="round" stroke-linejoin="round" stroke-miterlimit="10" points="
			13.1,93.9 52,103.2 76,47.3 129.5,58 137.5,20.4 		"/>
		<polygon fill="#F5F8FB" stroke="#0A82BA" stroke-linecap="round" stroke-linejoin="round" stroke-miterlimit="10" points="
			126.6,17.5 142.7,0.5 149.4,22.9 		"/>
		
			<circle fill="#F5F8FB" stroke="#0A82BA" stroke-linecap="round" stroke-linejoin="round" stroke-miterlimit="10" cx="13.1" cy="93.4" r="5.9"/>
		
			<circle fill="#F5F8FB" stroke="#0A82BA" stroke-linecap="round" stroke-linejoin="round" stroke-miterlimit="10" cx="52.1" cy="103.2" r="5.9"/>
		
			<circle fill="#F5F8FB" stroke="#0A82BA" stroke-linecap="round" stroke-linejoin="round" stroke-miterlimit="10" cx="129.4" cy="58.1" r="5.9"/>
		
			<circle fill="#F5F8FB" stroke="#0A82BA" stroke-linecap="round" stroke-linejoin="round" stroke-miterlimit="10" cx="78.1" cy="48.4" r="5.9"/>
	</g>
	<g>
		
			<rect x="100.6" y="80.6" transform="matrix(0.8483 -0.5295 0.5295 0.8483 -40.9922 74.1078)" fill="#F5F8FB" stroke="#0A82BA" stroke-linecap="round" stroke-linejoin="round" stroke-miterlimit="10" width="16.6" height="56"/>
		
			<rect x="109.9" y="102.6" transform="matrix(0.8483 -0.5295 0.5295 0.8483 -43.6372 77.0277)" fill="#F5F8FB" stroke="#0A82BA" stroke-linecap="round" stroke-linejoin="round" stroke-miterlimit="10" width="5.5" height="24.1"/>
		<g>
			<path fill="#F5F8FB" stroke="#0A82BA" stroke-linecap="round" stroke-linejoin="round" stroke-miterlimit="10" d="M83.3,10.8
				c-22.9-5.3-45.8,9-51.1,31.9c-5.3,22.9,9,45.8,31.9,51.1s45.8-9,51.1-31.9C120.5,39,106.2,16.1,83.3,10.8z M66.8,82.2
				c-16.6-3.8-26.9-20.4-23-36.9s20.4-26.9,36.9-23s26.9,20.4,23,36.9S83.4,86.1,66.8,82.2z"/>
		</g>
		
			<line fill="none" stroke="#0A82BA" stroke-linecap="round" stroke-linejoin="round" stroke-miterlimit="10" x1="95" y1="101.7" x2="107.8" y2="93.3"/>
		<path fill="none" stroke="#0A82BA" stroke-linecap="round" stroke-linejoin="round" stroke-miterlimit="10" d="M65.1,30.9
			c-10.2,5.9-15,14.8-13,27.1"/>
	</g>
</g>
</svg>
