<?xml version="1.0" encoding="utf-8"?>
<!-- Generator: Adobe Illustrator 18.1.1, SVG Export Plug-In . SVG Version: 6.00 Build 0)  -->
<svg version="1.1" id="Layer_1" xmlns="http://www.w3.org/2000/svg" xmlns:xlink="http://www.w3.org/1999/xlink" x="0px" y="0px"
	 viewBox="0 0 401 102.4" enable-background="new 0 0 401 102.4" xml:space="preserve">
<g>
	<g>
		<defs>
			<circle id="SVGID_5_" cx="39.9" cy="48.1" r="39.4"/>
		</defs>
		<use xlink:href="#SVGID_5_"  overflow="visible" fill="#F5F8FB"/>
		<clipPath id="SVGID_2_">
			<use xlink:href="#SVGID_5_"  overflow="visible"/>
		</clipPath>
		<g clip-path="url(#SVGID_2_)">
			
				<ellipse fill="#F5F8FB" stroke="#0A82BA" stroke-linecap="round" stroke-linejoin="round" stroke-miterlimit="10" cx="40.7" cy="38.2" rx="14" ry="16.8"/>
			<path fill="#F5F8FB" stroke="#0A82BA" stroke-linecap="round" stroke-linejoin="round" stroke-miterlimit="10" d="M41.3,51.6
				c-6.1,0-11.1-6-11.1-13.4"/>
			<path fill="#F5F8FB" stroke="#0A82BA" stroke-linecap="round" stroke-linejoin="round" stroke-miterlimit="10" d="M29.6,38.2"/>
			<path fill="#F5F8FB" stroke="#0A82BA" stroke-linecap="round" stroke-linejoin="round" stroke-miterlimit="10" d="M72.2,88h-63
				c0,0,1.1-14.9,7.2-21.7c5.6-6.2,14.9-6.4,24.3-6.4c9.3,0,18.6,0.2,24.3,6.4C71.2,73.1,72.2,88,72.2,88z"/>
		</g>
		
			<use xlink:href="#SVGID_5_"  overflow="visible" fill="none" stroke="#0A82BA" stroke-linecap="round" stroke-linejoin="round" stroke-miterlimit="10"/>
	</g>
	<g>
		<defs>
			<circle id="SVGID_7_" cx="361.1" cy="48.1" r="39.4"/>
		</defs>
		<use xlink:href="#SVGID_7_"  overflow="visible" fill="#F5F8FB"/>
		<clipPath id="SVGID_4_">
			<use xlink:href="#SVGID_7_"  overflow="visible"/>
		</clipPath>
		<g clip-path="url(#SVGID_4_)">
			
				<ellipse fill="#F5F8FB" stroke="#0A82BA" stroke-linecap="round" stroke-linejoin="round" stroke-miterlimit="10" cx="362" cy="38.2" rx="14" ry="16.8"/>
			<path fill="#F5F8FB" stroke="#0A82BA" stroke-linecap="round" stroke-linejoin="round" stroke-miterlimit="10" d="M362.5,51.6
				c-6.1,0-11.1-6-11.1-13.4"/>
			<path fill="#F5F8FB" stroke="#0A82BA" stroke-linecap="round" stroke-linejoin="round" stroke-miterlimit="10" d="M350.8,38.2"/>
			<path fill="#F5F8FB" stroke="#0A82BA" stroke-linecap="round" stroke-linejoin="round" stroke-miterlimit="10" d="M393.4,88h-63
				c0,0,1.1-14.9,7.2-21.7c5.6-6.2,14.9-6.4,24.3-6.4c9.3,0,18.6,0.2,24.3,6.4C392.4,73.1,393.4,88,393.4,88z"/>
		</g>
		
			<use xlink:href="#SVGID_7_"  overflow="visible" fill="none" stroke="#0A82BA" stroke-linecap="round" stroke-linejoin="round" stroke-miterlimit="10"/>
	</g>
	<g>
		<g>
			<line fill="none" stroke="#0A82BA" stroke-linecap="round" stroke-linejoin="round" x1="247.3" y1="56.5" x2="296.3" y2="56.5"/>
			<g>
				<polygon fill="#0A82BA" points="292.9,60.9 292.3,60.2 295.9,56.8 292.3,53.5 292.9,52.7 297.3,56.8 				"/>
			</g>
		</g>
	</g>
	<g>
		<g>
			<line fill="none" stroke="#0A82BA" stroke-linecap="round" stroke-linejoin="round" x1="207.3" y1="39.5" x2="105.3" y2="39.5"/>
			<g>
				<polygon fill="#0A82BA" points="108.4,35.2 109.1,36 105.5,39.3 109.1,42.7 108.4,43.4 104,39.3 				"/>
			</g>
		</g>
	</g>
	
		<line fill="none" stroke="#0A82BA" stroke-linecap="round" stroke-linejoin="round" stroke-miterlimit="10" x1="203.3" y1="56.5" x2="104.3" y2="56.5"/>
	
		<line fill="none" stroke="#0A82BA" stroke-linecap="round" stroke-linejoin="round" stroke-miterlimit="10" x1="297.3" y1="39.5" x2="247.3" y2="39.5"/>
	<g>
		<g>
			<path fill="#0A82BA" d="M231.8,42.4c-1.1-1-2.2-1.5-3.4-1.6v5.9c3.2,0.7,4.6,1.9,4.6,4c0,2.2-1.9,3.8-4.5,3.9v2.1h-1v-2.1
				c-1.9-0.2-3.5-0.9-5-2.3l0.7-0.8c1.3,1.2,2.6,2,4.4,2.1v-6c-3.2-0.7-4.5-1.9-4.5-4c0-2.1,1.9-3.8,4.4-3.8v-1.2h1v1.3
				c1.6,0.1,2.8,0.7,4.1,1.7L231.8,42.4z M227.4,46.5v-5.8c-2.1,0-3.4,1.3-3.4,2.8C224,45,224.6,45.8,227.4,46.5z M228.3,47.8v5.8
				c2.1,0,3.5-1.3,3.5-2.9C231.8,49.3,231.1,48.4,228.3,47.8z"/>
		</g>
		<g>
			
				<line fill="none" stroke="#0A82BA" stroke-linecap="round" stroke-linejoin="round" stroke-miterlimit="10" x1="226.8" y1="0" x2="226.8" y2="8"/>
			
				<line fill="none" stroke="#0A82BA" stroke-linecap="round" stroke-linejoin="round" stroke-miterlimit="10" x1="207" y1="3.6" x2="210.3" y2="11.5"/>
			
				<line fill="none" stroke="#0A82BA" stroke-linecap="round" stroke-linejoin="round" stroke-miterlimit="10" x1="245.3" y1="2.8" x2="242" y2="10.7"/>
			
				<line fill="none" stroke="#0A82BA" stroke-linecap="round" stroke-linejoin="round" stroke-miterlimit="10" x1="260" y1="12.9" x2="255.1" y2="17.8"/>
			
				<line fill="none" stroke="#0A82BA" stroke-linecap="round" stroke-linejoin="round" stroke-miterlimit="10" x1="198.1" y1="18.3" x2="192.8" y2="12.9"/>
		</g>
		
			<rect x="245.2" y="65.1" transform="matrix(0.8483 -0.5295 0.5295 0.8483 -6.1807 145.3608)" fill="#F5F8FB" stroke="#0A82BA" stroke-linecap="round" stroke-linejoin="round" stroke-miterlimit="10" width="10.9" height="36.7"/>
		
			<rect x="251.3" y="79.6" transform="matrix(0.8483 -0.5295 0.5295 0.8483 -7.912 147.272)" fill="#F5F8FB" stroke="#0A82BA" stroke-linecap="round" stroke-linejoin="round" stroke-miterlimit="10" width="3.6" height="15.8"/>
		<g>
			<path fill="#F5F8FB" stroke="#0A82BA" stroke-linecap="round" stroke-linejoin="round" stroke-miterlimit="10" d="M233.5,19.5
				c-15-3.5-30,5.9-33.4,20.9c-3.5,15,5.9,30,20.9,33.4c15,3.5,30-5.9,33.4-20.9C257.8,37.9,248.5,22.9,233.5,19.5z M222.7,66.2
				c-10.8-2.5-17.6-13.3-15.1-24.2c2.5-10.8,13.3-17.6,24.2-15.1c10.8,2.5,17.6,13.3,15.1,24.2C244.3,62,233.5,68.7,222.7,66.2z"/>
		</g>
		
			<line fill="#F5F8FB" stroke="#0A82BA" stroke-linecap="round" stroke-linejoin="round" stroke-miterlimit="10" x1="241.1" y1="79" x2="249.5" y2="73.5"/>
		<path fill="none" stroke="#0A82BA" stroke-linecap="round" stroke-linejoin="round" stroke-miterlimit="10" d="M221.6,32.6
			c-6.7,3.9-9.8,9.7-8.5,17.8"/>
	</g>
	
		<circle fill="#F5F8FB" stroke="#0581BA" stroke-linecap="round" stroke-linejoin="round" stroke-miterlimit="10" cx="131.2" cy="39.1" r="4.4"/>
	
		<circle fill="#F5F8FB" stroke="#0581BA" stroke-linecap="round" stroke-linejoin="round" stroke-miterlimit="10" cx="173.2" cy="39.1" r="4.4"/>
	
		<circle fill="#F5F8FB" stroke="#0581BA" stroke-linecap="round" stroke-linejoin="round" stroke-miterlimit="10" cx="293.4" cy="39.1" r="4.4"/>
	
		<circle fill="#F5F8FB" stroke="#0581BA" stroke-linecap="round" stroke-linejoin="round" stroke-miterlimit="10" cx="152.7" cy="56.6" r="4.4"/>
	
		<circle fill="#F5F8FB" stroke="#0581BA" stroke-linecap="round" stroke-linejoin="round" stroke-miterlimit="10" cx="108.5" cy="56.6" r="4.4"/>
	
		<circle fill="#F5F8FB" stroke="#0581BA" stroke-linecap="round" stroke-linejoin="round" stroke-miterlimit="10" cx="269.6" cy="56.6" r="4.4"/>
</g>
</svg>
