<?xml version="1.0" encoding="utf-8"?>
<!-- Generator: Adobe Illustrator 18.1.1, SVG Export Plug-In . SVG Version: 6.00 Build 0)  -->
<svg version="1.1" id="Layer_1" xmlns="http://www.w3.org/2000/svg" xmlns:xlink="http://www.w3.org/1999/xlink" x="0px" y="0px"
	 viewBox="0 0 401 152.8" enable-background="new 0 0 401 152.8" xml:space="preserve">
<g>
	<path fill="#F5F8FB" stroke="#0A82BA" stroke-linecap="round" stroke-linejoin="round" stroke-miterlimit="10" d="M180.4,127.6H8.4
		c-4.4,0-7.9-3.5-7.9-7.9V8.4C0.5,4,4,0.5,8.4,0.5h172c4.4,0,7.9,3.5,7.9,7.9v111.3C188.3,124.1,184.7,127.6,180.4,127.6z"/>
	<polygon fill="#F5F8FB" stroke="#0A82BA" stroke-linecap="round" stroke-linejoin="round" stroke-miterlimit="10" points="
		117.6,152.3 71.2,152.3 76,131.5 112.8,131.5 	"/>
	
		<rect x="6" y="10" fill="#F5F8FB" stroke="#0A82BA" stroke-linecap="round" stroke-linejoin="round" stroke-miterlimit="10" width="176.7" height="98.6"/>
	<g>
		<g>
			<g>
				<g>
					<polygon fill="#F5F8FB" stroke="#0A82BA" stroke-linecap="round" stroke-linejoin="round" stroke-miterlimit="10" points="
						131.3,89.1 127.2,86.7 122.3,89.1 128,64.7 137,64.7 					"/>
					<polygon fill="#F5F8FB" stroke="#0A82BA" stroke-linecap="round" stroke-linejoin="round" stroke-miterlimit="10" points="
						139.3,89.1 143.3,86.7 148.2,89.1 142.5,64.7 133.6,64.7 					"/>
				</g>
				<polygon fill="#F5F8FB" stroke="#0A82BA" stroke-linecap="round" stroke-linejoin="round" stroke-miterlimit="10" points="
					135.3,40.1 138.2,38.4 140.5,40.9 143.9,40.2 145.3,43.3 148.6,43.7 149,47.1 152.1,48.5 151.5,51.8 153.9,54.1 152.3,57.1 
					153.9,60 151.5,62.3 152.1,65.6 149,67.1 148.6,70.4 145.3,70.8 143.9,73.9 140.5,73.2 138.2,75.7 135.3,74.1 132.3,75.7 
					130,73.2 126.7,73.9 125.3,70.8 121.9,70.4 121.5,67.1 118.4,65.6 119.1,62.3 116.6,60 118.3,57.1 116.6,54.1 119.1,51.8 
					118.4,48.5 121.5,47.1 121.9,43.7 125.3,43.3 126.7,40.2 130,40.9 132.3,38.4 				"/>
				
					<circle fill="#F5F8FB" stroke="#0A82BA" stroke-linecap="round" stroke-linejoin="round" stroke-miterlimit="10" cx="135.3" cy="57.1" r="14.1"/>
			</g>
			<g>
				<polygon fill="#F5F8FB" stroke="#0A82BA" stroke-linecap="round" stroke-linejoin="round" stroke-miterlimit="10" points="
					141.8,53.7 140.1,52 133.4,58.7 130.4,55.7 128.7,57.4 131.7,60.4 131.7,60.4 133.4,62.1 133.4,62.1 133.4,62.1 135.1,60.4 
					135.1,60.4 				"/>
			</g>
		</g>
		<g>
			
				<line fill="#F5F8FB" stroke="#0A82BA" stroke-linecap="round" stroke-linejoin="round" stroke-miterlimit="10" x1="136.4" y1="24.5" x2="136.4" y2="31.5"/>
			
				<line fill="#F5F8FB" stroke="#0A82BA" stroke-linecap="round" stroke-linejoin="round" stroke-miterlimit="10" x1="118.3" y1="27.2" x2="121.2" y2="34.1"/>
			
				<line fill="#F5F8FB" stroke="#0A82BA" stroke-linecap="round" stroke-linejoin="round" stroke-miterlimit="10" x1="151.8" y1="26.5" x2="148.9" y2="33.4"/>
			
				<line fill="#F5F8FB" stroke="#0A82BA" stroke-linecap="round" stroke-linejoin="round" stroke-miterlimit="10" x1="164.7" y1="35.3" x2="160.4" y2="39.6"/>
			
				<line fill="#F5F8FB" stroke="#0A82BA" stroke-linecap="round" stroke-linejoin="round" stroke-miterlimit="10" x1="110.5" y1="40" x2="105.8" y2="35.3"/>
		</g>
	</g>
	<g>
		
			<rect x="32.4" y="27.9" fill="#F5F8FB" stroke="#0A82BA" stroke-linecap="round" stroke-linejoin="round" stroke-miterlimit="10" width="39.7" height="54.3"/>
		
			<rect x="29" y="31.3" fill="#F5F8FB" stroke="#0A82BA" stroke-linecap="round" stroke-linejoin="round" stroke-miterlimit="10" width="39.7" height="54.3"/>
		
			<rect x="25.6" y="34.8" fill="#F5F8FB" stroke="#0A82BA" stroke-linecap="round" stroke-linejoin="round" stroke-miterlimit="10" width="39.7" height="54.3"/>
		
			<line fill="#F5F8FB" stroke="#0A82BA" stroke-linecap="round" stroke-linejoin="round" stroke-miterlimit="10" x1="33.9" y1="44" x2="58.9" y2="44"/>
		
			<line fill="#F5F8FB" stroke="#0A82BA" stroke-linecap="round" stroke-linejoin="round" stroke-miterlimit="10" x1="33.9" y1="47" x2="58.9" y2="47"/>
		<g>
			
				<circle fill="#F5F8FB" stroke="#0A82BA" stroke-linecap="round" stroke-linejoin="round" stroke-miterlimit="10" cx="33.9" cy="55" r="1.2"/>
			
				<line fill="#F5F8FB" stroke="#0A82BA" stroke-linecap="round" stroke-linejoin="round" stroke-miterlimit="10" x1="38.9" y1="55" x2="51.9" y2="55"/>
		</g>
		<g>
			
				<circle fill="#F5F8FB" stroke="#0A82BA" stroke-linecap="round" stroke-linejoin="round" stroke-miterlimit="10" cx="33.9" cy="60.7" r="1.2"/>
			
				<line fill="#F5F8FB" stroke="#0A82BA" stroke-linecap="round" stroke-linejoin="round" stroke-miterlimit="10" x1="38.9" y1="61" x2="51.9" y2="61"/>
		</g>
		<g>
			
				<circle fill="#F5F8FB" stroke="#0A82BA" stroke-linecap="round" stroke-linejoin="round" stroke-miterlimit="10" cx="33.9" cy="65.9" r="1.2"/>
			
				<line fill="#F5F8FB" stroke="#0A82BA" stroke-linecap="round" stroke-linejoin="round" stroke-miterlimit="10" x1="38.9" y1="65" x2="51.9" y2="65"/>
		</g>
		<g>
			
				<circle fill="#F5F8FB" stroke="#0A82BA" stroke-linecap="round" stroke-linejoin="round" stroke-miterlimit="10" cx="33.9" cy="71.3" r="1.2"/>
			
				<line fill="#F5F8FB" stroke="#0A82BA" stroke-linecap="round" stroke-linejoin="round" stroke-miterlimit="10" x1="38.9" y1="72" x2="51.9" y2="72"/>
		</g>
	</g>
	
		<circle fill="#F5F8FB" stroke="#0A82BA" stroke-linecap="round" stroke-linejoin="round" stroke-miterlimit="10" cx="94.4" cy="118.4" r="3.3"/>
	<g>
		<defs>
			<circle id="SVGID_1_" cx="274" cy="105.8" r="39.4"/>
		</defs>
		<use xlink:href="#SVGID_1_"  overflow="visible" fill="#F5F8FB"/>
		<clipPath id="SVGID_2_">
			<use xlink:href="#SVGID_1_"  overflow="visible"/>
		</clipPath>
		<g clip-path="url(#SVGID_2_)">
			
				<ellipse fill="#F5F8FB" stroke="#0A82BA" stroke-linecap="round" stroke-linejoin="round" stroke-miterlimit="10" cx="274.8" cy="96" rx="14" ry="16.8"/>
			<path fill="#F5F8FB" stroke="#0A82BA" stroke-linecap="round" stroke-linejoin="round" stroke-miterlimit="10" d="M275.3,109.3
				c-6.1,0-11.1-6-11.1-13.4"/>
			<path fill="#F5F8FB" stroke="#0A82BA" stroke-linecap="round" stroke-linejoin="round" stroke-miterlimit="10" d="M263.7,96"/>
			<path fill="#F5F8FB" stroke="#0A82BA" stroke-linecap="round" stroke-linejoin="round" stroke-miterlimit="10" d="M305.9,145.8
				h-63c0,0,1.1-14.9,7.2-21.7c5.6-6.2,14.9-6.4,24.3-6.4c9.3,0,18.6,0.2,24.3,6.4C304.8,130.9,305.9,145.8,305.9,145.8z"/>
		</g>
		
			<use xlink:href="#SVGID_1_"  overflow="visible" fill="none" stroke="#0A82BA" stroke-linecap="round" stroke-linejoin="round" stroke-miterlimit="10"/>
	</g>
	<g>
		<defs>
			<circle id="SVGID_3_" cx="361.1" cy="51.5" r="39.4"/>
		</defs>
		<use xlink:href="#SVGID_3_"  overflow="visible" fill="#F5F8FB"/>
		<clipPath id="SVGID_4_">
			<use xlink:href="#SVGID_3_"  overflow="visible"/>
		</clipPath>
		<g clip-path="url(#SVGID_4_)">
			
				<ellipse fill="#F5F8FB" stroke="#0A82BA" stroke-linecap="round" stroke-linejoin="round" stroke-miterlimit="10" cx="362" cy="41.6" rx="14" ry="16.8"/>
			<path fill="#F5F8FB" stroke="#0A82BA" stroke-linecap="round" stroke-linejoin="round" stroke-miterlimit="10" d="M362.5,55
				c-6.1,0-11.1-6-11.1-13.4"/>
			<path fill="#F5F8FB" stroke="#0A82BA" stroke-linecap="round" stroke-linejoin="round" stroke-miterlimit="10" d="M350.8,41.6"/>
			<path fill="#F5F8FB" stroke="#0A82BA" stroke-linecap="round" stroke-linejoin="round" stroke-miterlimit="10" d="M393,91.4h-63
				c0,0,1.1-14.9,7.2-21.7c5.6-6.2,14.9-6.4,24.3-6.4c9.3,0,18.6,0.2,24.3,6.4C392,76.5,393,91.4,393,91.4z"/>
		</g>
		
			<use xlink:href="#SVGID_3_"  overflow="visible" fill="none" stroke="#0A82BA" stroke-linecap="round" stroke-linejoin="round" stroke-miterlimit="10"/>
	</g>
</g>
</svg>
