<?xml version="1.0" encoding="utf-8"?>
<!-- Generator: Adobe Illustrator 18.1.1, SVG Export Plug-In . SVG Version: 6.00 Build 0)  -->
<svg version="1.1" id="Layer_1" xmlns="http://www.w3.org/2000/svg" xmlns:xlink="http://www.w3.org/1999/xlink" x="0px" y="0px"
	 viewBox="0 0 401 170.6" enable-background="new 0 0 401 170.6" xml:space="preserve">
<g>
	<g>
		
			<rect x="0.5" y="85.2" fill="#F5F8FB" stroke="#0A82BA" stroke-linecap="round" stroke-linejoin="round" stroke-miterlimit="10" width="45.6" height="29.6"/>
		<polyline fill="none" stroke="#0A82BA" stroke-linecap="round" stroke-linejoin="round" stroke-miterlimit="10" points="0.5,85.4 
			23.3,101.9 46,85.4 		"/>
	</g>
	<g>
		
			<rect x="358" y="73.6" fill="#F5F8FB" stroke="#0A82BA" stroke-linecap="round" stroke-linejoin="round" stroke-miterlimit="10" width="42.5" height="52.1"/>
		
			<rect x="353.9" y="77.6" fill="#F5F8FB" stroke="#0A82BA" stroke-linecap="round" stroke-linejoin="round" stroke-miterlimit="10" width="42.5" height="52.1"/>
		
			<line fill="#F5F8FB" stroke="#0A82BA" stroke-linecap="round" stroke-linejoin="round" stroke-miterlimit="10" x1="375.3" y1="86.5" x2="389.3" y2="86.5"/>
		
			<line fill="#F5F8FB" stroke="#0A82BA" stroke-linecap="round" stroke-linejoin="round" stroke-miterlimit="10" x1="375.3" y1="89.5" x2="387.3" y2="89.5"/>
		
			<line fill="#F5F8FB" stroke="#0A82BA" stroke-linecap="round" stroke-linejoin="round" stroke-miterlimit="10" x1="375.3" y1="92.5" x2="389.3" y2="92.5"/>
		
			<line fill="#F5F8FB" stroke="#0A82BA" stroke-linecap="round" stroke-linejoin="round" stroke-miterlimit="10" x1="361.3" y1="97.5" x2="389.3" y2="97.5"/>
		
			<line fill="#F5F8FB" stroke="#0A82BA" stroke-linecap="round" stroke-linejoin="round" stroke-miterlimit="10" x1="361.3" y1="100.5" x2="387.3" y2="100.5"/>
		
			<line fill="#F5F8FB" stroke="#0A82BA" stroke-linecap="round" stroke-linejoin="round" stroke-miterlimit="10" x1="361.3" y1="104.5" x2="389.3" y2="104.5"/>
		
			<line fill="#F5F8FB" stroke="#0A82BA" stroke-linecap="round" stroke-linejoin="round" stroke-miterlimit="10" x1="361.3" y1="109.5" x2="389.3" y2="109.5"/>
		
			<line fill="#F5F8FB" stroke="#0A82BA" stroke-linecap="round" stroke-linejoin="round" stroke-miterlimit="10" x1="361.3" y1="113.5" x2="387.3" y2="113.5"/>
		
			<line fill="#F5F8FB" stroke="#0A82BA" stroke-linecap="round" stroke-linejoin="round" stroke-miterlimit="10" x1="361.3" y1="116.5" x2="389.3" y2="116.5"/>
		
			<line fill="#F5F8FB" stroke="#0A82BA" stroke-linecap="round" stroke-linejoin="round" stroke-miterlimit="10" x1="361.3" y1="120.5" x2="389.3" y2="120.5"/>
		<text transform="matrix(1 0 0 1 361.2713 93.3526)" fill="#0581BA" font-family="'Gotham-Book'" font-size="11.8035">A</text>
	</g>
	<g>
		<g>
			<path fill="#F5F8FB" stroke="#0A82BA" stroke-linecap="round" stroke-linejoin="round" stroke-miterlimit="10" d="M268.8,73.4
				c0,3.1,2,5.1,5.1,5.1h45.4c3.1,0,4.5-2,4.5-5.1V43.5h-55V73.4z"/>
			<path fill="#F5F8FB" stroke="#0A82BA" stroke-linecap="round" stroke-linejoin="round" stroke-miterlimit="10" d="M319.2,33.5
				h-45.4c-3.1,0-5.1,3.1-5.1,6.1v3.9h55v-3.9C323.8,36.6,322.3,33.5,319.2,33.5z"/>
		</g>
		
			<circle fill="#F5F8FB" stroke="#0A82BA" stroke-linecap="round" stroke-linejoin="round" stroke-miterlimit="10" cx="305.9" cy="38.9" r="1.5"/>
		
			<circle fill="#F5F8FB" stroke="#0A82BA" stroke-linecap="round" stroke-linejoin="round" stroke-miterlimit="10" cx="311.3" cy="38.9" r="1.5"/>
		
			<circle fill="#F5F8FB" stroke="#0A82BA" stroke-linecap="round" stroke-linejoin="round" stroke-miterlimit="10" cx="317.3" cy="38.9" r="1.5"/>
		<g>
			
				<rect x="273.3" y="48.2" fill="#F5F8FB" stroke="#0A82BA" stroke-linecap="round" stroke-linejoin="round" stroke-miterlimit="10" width="45.9" height="25.3"/>
			<g>
				
					<circle fill="#F5F8FB" stroke="#0A82BA" stroke-linecap="round" stroke-linejoin="round" stroke-miterlimit="10" cx="296.2" cy="60.8" r="7.8"/>
				<polygon fill="#F5F8FB" stroke="#0A82BA" stroke-linecap="round" stroke-linejoin="round" stroke-miterlimit="10" points="
					293.8,56.1 301,60.8 293.8,65.6 				"/>
			</g>
		</g>
	</g>
	<g>
		<g>
			<path fill="#F5F8FB" stroke="#0A82BA" stroke-linecap="round" stroke-linejoin="round" stroke-miterlimit="10" d="M153.9,141.7
				h-33.3l-7.5,7.8v-7.8v-27.9c0-2.7,2.5-4.9,5.5-4.9h35.4c3,0,5.5,2.2,5.5,4.9v23C159.3,139.6,156.9,141.7,153.9,141.7z"/>
			<g>
				
					<line fill="none" stroke="#0A82BA" stroke-linecap="round" stroke-linejoin="round" stroke-miterlimit="10" x1="151.3" y1="119.5" x2="122.3" y2="119.5"/>
				
					<line fill="none" stroke="#0A82BA" stroke-linecap="round" stroke-linejoin="round" stroke-miterlimit="10" x1="151.3" y1="123.5" x2="122.3" y2="123.5"/>
				
					<line fill="none" stroke="#0A82BA" stroke-linecap="round" stroke-linejoin="round" stroke-miterlimit="10" x1="151.3" y1="128.5" x2="122.3" y2="128.5"/>
				
					<line fill="none" stroke="#0A82BA" stroke-linecap="round" stroke-linejoin="round" stroke-miterlimit="10" x1="151.3" y1="132.5" x2="122.3" y2="132.5"/>
			</g>
			<path fill="none" stroke="#0A82BA" stroke-linecap="round" stroke-linejoin="round" stroke-miterlimit="10" d="M156.3,115.2
				c0,0-0.2-3.2-3.8-3.2"/>
		</g>
		<g>
			<path fill="#F5F8FB" stroke="#0A82BA" stroke-linecap="round" stroke-linejoin="round" stroke-miterlimit="10" d="M134.9,162.2
				h33.3l7.5,7.8v-7.8v-27.9c0-2.7-2.5-4.9-5.5-4.9h-35.4c-3,0-5.5,2.2-5.5,4.9v23C129.4,160.1,131.9,162.2,134.9,162.2z"/>
			<g>
				
					<line fill="none" stroke="#0A82BA" stroke-linecap="round" stroke-linejoin="round" stroke-miterlimit="10" x1="137.3" y1="139.5" x2="166.3" y2="139.5"/>
				
					<line fill="none" stroke="#0A82BA" stroke-linecap="round" stroke-linejoin="round" stroke-miterlimit="10" x1="137.3" y1="143.5" x2="166.3" y2="143.5"/>
				
					<line fill="none" stroke="#0A82BA" stroke-linecap="round" stroke-linejoin="round" stroke-miterlimit="10" x1="137.3" y1="149.5" x2="166.3" y2="149.5"/>
				
					<line fill="none" stroke="#0A82BA" stroke-linecap="round" stroke-linejoin="round" stroke-miterlimit="10" x1="137.3" y1="153.5" x2="166.3" y2="153.5"/>
			</g>
			<path fill="none" stroke="#0A82BA" stroke-linecap="round" stroke-linejoin="round" stroke-miterlimit="10" d="M132.4,135.7
				c0,0,0.2-3.2,3.8-3.2"/>
		</g>
	</g>
	<g>
		<path fill="#F5F8FB" stroke="#0A82BA" stroke-linecap="round" stroke-linejoin="round" stroke-miterlimit="10" d="M202.6,21.5
			c-16.3,0.5-22.3,15.4-19,26.9c0.3,1.5,0.9,3.1,1.6,4.7c2.2,4.9,8.1,9.4,8.1,13.7c0,1.7,0.4,9.7,0.4,9.7h17.4c0,0,0.6-8.5,0.6-9.7
			c0-4.3,6-8.9,8.2-13.8c0.7-1.6,1.3-3.1,1.6-4.7C224.9,36.9,218.8,22,202.6,21.5z"/>
		<path fill="none" stroke="#0A82BA" stroke-linecap="round" stroke-linejoin="round" stroke-miterlimit="10" d="M198.4,76.7
			l8.2-29.2c0,0-3.1-4.5-4.1-4.5c-1,0-4.1,4.5-4.1,4.5l8.2,29.2"/>
		<g>
			
				<rect x="193.5" y="80.1" fill="#F5F8FB" stroke="#0A82BA" stroke-linecap="round" stroke-linejoin="round" stroke-miterlimit="10" width="18.1" height="10.3"/>
			
				<line fill="#F5F8FB" stroke="#0A82BA" stroke-linecap="round" stroke-linejoin="round" stroke-miterlimit="10" x1="194.3" y1="82.5" x2="203.3" y2="82.5"/>
			
				<line fill="#F5F8FB" stroke="#0A82BA" stroke-linecap="round" stroke-linejoin="round" stroke-miterlimit="10" x1="201.3" y1="86.5" x2="210.3" y2="86.5"/>
		</g>
		<g>
			
				<line fill="#F5F8FB" stroke="#0A82BA" stroke-linecap="round" stroke-linejoin="round" stroke-miterlimit="10" x1="202.8" y1="0" x2="202.8" y2="7"/>
			
				<line fill="#F5F8FB" stroke="#0A82BA" stroke-linecap="round" stroke-linejoin="round" stroke-miterlimit="10" x1="184.8" y1="3.2" x2="187.8" y2="10.5"/>
			
				<line fill="#F5F8FB" stroke="#0A82BA" stroke-linecap="round" stroke-linejoin="round" stroke-miterlimit="10" x1="219.9" y1="2.5" x2="216.9" y2="9.8"/>
			
				<line fill="#F5F8FB" stroke="#0A82BA" stroke-linecap="round" stroke-linejoin="round" stroke-miterlimit="10" x1="233.4" y1="11.8" x2="228.9" y2="16.3"/>
			
				<line fill="#F5F8FB" stroke="#0A82BA" stroke-linecap="round" stroke-linejoin="round" stroke-miterlimit="10" x1="176.6" y1="16.7" x2="171.7" y2="11.8"/>
		</g>
		<path fill="none" stroke="#0A82BA" stroke-linecap="round" stroke-linejoin="round" stroke-miterlimit="10" d="M187.8,37.6
			c0,0,1.2-12,13.8-12"/>
	</g>
	<g>
		<g>
			<path fill="#F5F8FB" stroke="#0A82BA" stroke-linecap="round" stroke-linejoin="round" stroke-miterlimit="10" d="M284.5,170.1
				h-24.8c-2.8,0-5.1-2.3-5.1-5.1V116c0-2.8,2.3-5.1,5.1-5.1h24.8c2.8,0,5.1,2.3,5.1,5.1v48.9C289.6,167.8,287.3,170.1,284.5,170.1z
				"/>
			
				<rect x="258.2" y="116.2" fill="#F5F8FB" stroke="#0A82BA" stroke-linecap="round" stroke-linejoin="round" stroke-miterlimit="10" width="27.7" height="45.3"/>
			
				<circle fill="#F5F8FB" stroke="#0A82BA" stroke-linecap="round" stroke-linejoin="round" stroke-miterlimit="10" cx="271.9" cy="165.5" r="1.7"/>
		</g>
		<g>
			<path fill="#F5F8FB" stroke="#0A82BA" stroke-linecap="round" stroke-linejoin="round" stroke-miterlimit="10" d="M278.1,137.4
				c0,0.1,0,0.3,0,0.4c0,4.1-3.2,8.9-8.9,8.9c-1.8,0-3.4-0.5-4.8-1.4c0.3,0,0.5,0,0.8,0c1.5,0,2.8-0.5,3.9-1.3
				c-1.4,0-2.5-0.9-2.9-2.2c0.2,0,0.4,0,0.6,0c0.3,0,0.6,0,0.8-0.1c-1.4-0.3-2.5-1.6-2.5-3.1c0,0,0,0,0,0c0.4,0.2,0.9,0.4,1.4,0.4
				c-0.8-0.6-1.4-1.5-1.4-2.6c0-0.6,0.2-1.1,0.4-1.6c1.5,1.9,3.9,3.1,6.5,3.3c0-0.2-0.1-0.5-0.1-0.7c0-1.7,1.4-3.1,3.1-3.1
				c0.9,0,1.7,0.4,2.3,1c0.7-0.1,1.4-0.4,2-0.8c-0.2,0.7-0.7,1.3-1.4,1.7c0.6-0.1,1.2-0.2,1.8-0.5
				C279.3,136.4,278.8,136.9,278.1,137.4z"/>
		</g>
	</g>
	<g>
		<g>
			<polygon fill="#F5F8FB" stroke="#0A82BA" stroke-linecap="round" stroke-linejoin="round" stroke-miterlimit="10" points="
				80.8,40.4 128.1,55.5 80.8,70.6 			"/>
			<g>
				<path fill="#0581BA" d="M90.2,55.6h-2.8v-1h2.8v-2.8h1v2.8H94v1h-2.8v2.8h-1V55.6z"/>
				<path fill="#0581BA" d="M97.3,51.5L95.5,52l-0.3-0.9l2.3-0.8h0.8v9.5h-1V51.5z"/>
			</g>
		</g>
		
			<line fill="#F5F8FB" stroke="#0A82BA" stroke-linecap="round" stroke-linejoin="round" stroke-miterlimit="10" x1="80.8" y1="40" x2="80.8" y2="101"/>
	</g>
</g>
</svg>
