<?xml version="1.0" encoding="utf-8"?>
<!-- Generator: Adobe Illustrator 18.1.0, SVG Export Plug-In . SVG Version: 6.00 Build 0)  -->
<!DOCTYPE svg PUBLIC "-//W3C//DTD SVG 1.1//EN" "http://www.w3.org/Graphics/SVG/1.1/DTD/svg11.dtd">
<svg version="1.1" id="Layer_1" xmlns:svg="http://www.w3.org/2000/svg"
	 xmlns="http://www.w3.org/2000/svg" xmlns:xlink="http://www.w3.org/1999/xlink" x="0px" y="0px" viewBox="-251.5 276.2 105 49.9"
	 enable-background="new -251.5 276.2 105 49.9" xml:space="preserve">
<g transform="matrix(1.2470709,0,0,-1.2470709,-28.601861,1011.2423)">
	<g transform="translate(-216,-15084)">
		<path fill="#707070" d="M71.9,15673.4c-3.5-0.2-6.4-3.2-6.4-7.3v-19.7c0-0.7-0.5-1.3-1.3-1.3H58c-13.3,0-12.1,17-0.8,17H64v4.9h-7
			c-4.5,0-7.9-1.7-10.1-4.2c-2.3-2.5-3.4-5.9-3.4-9.3c0-3.4,1.1-6.7,3.4-9.2c2.3-2.5,5.8-4.2,10.6-4.2h11.6c0.8,0,1.4,0.7,1.4,1.4
			v24c0,1.2,0.7,2.2,1.6,2.5c0.9,0.3,2-0.1,2.6-1l0,0c3.3-5.4,16.4-26.4,16.4-26.4c0.4-0.5,0.8-0.6,1.1-0.5c0.3,0.1,0.6,0.4,0.6,1.3
			v24.2c0,1.2,0.7,2.2,1.6,2.5c0.9,0.3,1.9-0.1,2.6-1v0h0c3.3-5.4,16.4-26.4,16.4-26.4c0.4-0.5,0.8-0.6,1.1-0.5s0.7,0.4,0.6,1.3
			v31.9h-5v-18.6c0,0-3,5.1-8,13.8c-5,8.5-14.4,5-14.4-2.3v-11.4c0,0-2.9,5.1-8,13.8C77.7,15672.2,74.6,15673.6,71.9,15673.4
			L71.9,15673.4z M57.9,15673.3c-27.7,0-27.4-39.4,0.4-39.4h10.9c4.7,0,7.7,2.8,7.6,7.9v10c0,0,6.1-10.1,8.5-14
			c4.1-6.7,13.9-5.4,13.9,3v11c0,0,6.1-10.1,8.5-14c4.1-6.7,13.9-5.4,13.9,3v32.6h-5v-31.9c0-1.2-0.6-2.1-1.5-2.4
			c-0.9-0.3-1.9,0.1-2.5,1h0v0c0,0-13.1,20.9-16.4,26.4c0,0,0,0,0,0c0,0,0,0,0,0c-0.3,0.5-0.8,0.6-1.2,0.4c-0.4-0.1-0.7-0.4-0.7-1.3
			v-24.2c0-1.2-0.6-2.2-1.5-2.5c-0.9-0.3-1.9,0.1-2.5,1v0h0c0,0-13.1,21-16.4,26.4c-0.3,0.5-0.8,0.6-1.2,0.5
			c-0.4-0.1-0.7-0.4-0.7-1.3v0v-24c0-1.5-1.2-2.7-2.6-2.7H57.5c-5.1,0-8.9,1.8-11.5,4.6c-2.5,2.8-3.8,6.4-3.8,10.1
			c0,3.7,1.3,7.3,3.7,10.1c2.5,2.8,6.2,4.6,11,4.6h7v5L57.9,15673.3L57.9,15673.3z"/>
	</g>
</g>
</svg>
