<?xml version="1.0" encoding="utf-8"?>
<!-- Generator: Adobe Illustrator 18.1.0, SVG Export Plug-In . SVG Version: 6.00 Build 0)  -->
<!DOCTYPE svg PUBLIC "-//W3C//DTD SVG 1.1//EN" "http://www.w3.org/Graphics/SVG/1.1/DTD/svg11.dtd">
<svg version="1.1" id="svg5358" xmlns:svg="http://www.w3.org/2000/svg"
	 xmlns="http://www.w3.org/2000/svg" xmlns:xlink="http://www.w3.org/1999/xlink" x="0px" y="0px" viewBox="212.3 210.6 142 30.3"
	 enable-background="new 212.3 210.6 142 30.3" xml:space="preserve">
<path id="path5056" fill="#706D6E" d="M354.3,224.4v-2.5h-3.1V218l-0.1,0l-2.9,0.9l-0.1,0v2.9h-4.6v-1.6c0-0.8,0.2-1.3,0.5-1.7
	c0.3-0.4,0.8-0.6,1.4-0.6c0.4,0,0.9,0.1,1.3,0.3l0.1,0.1v-2.6l-0.1,0c-0.4-0.2-1-0.2-1.7-0.2c-0.9,0-1.7,0.2-2.4,0.6
	c-0.7,0.4-1.3,0.9-1.7,1.7c-0.4,0.7-0.6,1.5-0.6,2.4v1.8h-2.2v2.5h2.2v10.5h3.1v-10.5h4.6v6.7c0,2.8,1.3,4.1,3.9,4.1
	c0.4,0,0.9,0,1.3-0.1c0.5-0.1,0.8-0.2,1-0.3l0,0v-2.5l-0.1,0.1c-0.2,0.1-0.4,0.2-0.6,0.3c-0.2,0.1-0.5,0.1-0.6,0.1
	c-0.6,0-1-0.2-1.3-0.5c-0.3-0.3-0.4-0.9-0.4-1.7v-6.1H354.3L354.3,224.4z M331.3,232.7c-1.1,0-2-0.4-2.6-1.1
	c-0.6-0.7-0.9-1.8-0.9-3.1c0-1.4,0.3-2.5,0.9-3.2c0.6-0.7,1.5-1.1,2.6-1.1c1.1,0,1.9,0.4,2.5,1.1c0.6,0.7,0.9,1.8,0.9,3.2
	c0,1.4-0.3,2.5-0.9,3.2C333.3,232.3,332.5,232.7,331.3,232.7 M331.5,221.6c-2.1,0-3.9,0.6-5.1,1.9c-1.2,1.2-1.8,3-1.8,5.1
	c0,2,0.6,3.7,1.8,4.9c1.2,1.2,2.8,1.8,4.8,1.8c2.1,0,3.8-0.6,5-1.9c1.2-1.3,1.8-3,1.8-5.1c0-2.1-0.6-3.7-1.7-4.9
	C335.1,222.2,333.5,221.6,331.5,221.6 M319.6,221.6c-1.5,0-2.7,0.4-3.6,1.1c-0.9,0.7-1.4,1.7-1.4,2.9c0,0.6,0.1,1.2,0.3,1.6
	c0.2,0.5,0.5,0.9,0.9,1.2c0.4,0.3,1,0.7,1.9,1.1c0.7,0.3,1.2,0.5,1.6,0.7c0.3,0.2,0.6,0.4,0.7,0.6c0.1,0.2,0.2,0.4,0.2,0.7
	c0,0.9-0.7,1.3-2,1.3c-0.5,0-1.1-0.1-1.7-0.3c-0.6-0.2-1.2-0.5-1.7-0.9l-0.1-0.1v3l0,0c0.4,0.2,1,0.4,1.6,0.5
	c0.7,0.1,1.2,0.2,1.8,0.2c1.6,0,2.9-0.4,3.8-1.1c0.9-0.7,1.4-1.7,1.4-3c0-0.9-0.3-1.6-0.8-2.2c-0.5-0.6-1.4-1.2-2.6-1.6
	c-1-0.4-1.6-0.7-1.8-1c-0.2-0.2-0.4-0.6-0.4-1c0-0.4,0.2-0.7,0.5-0.9c0.3-0.2,0.8-0.4,1.3-0.4c0.5,0,1,0.1,1.6,0.2
	c0.5,0.2,1,0.4,1.4,0.6l0.1,0.1v-2.8l0,0c-0.4-0.2-0.8-0.3-1.4-0.4C320.5,221.6,320,221.6,319.6,221.6 M306.5,232.7
	c-1.1,0-2-0.4-2.6-1.1c-0.6-0.7-0.9-1.8-0.9-3.1c0-1.4,0.3-2.5,0.9-3.2c0.6-0.7,1.5-1.1,2.6-1.1c1.1,0,1.9,0.4,2.5,1.1
	c0.6,0.7,0.9,1.8,0.9,3.2c0,1.4-0.3,2.5-0.9,3.2C308.5,232.3,307.6,232.7,306.5,232.7 M306.6,221.6c-2.1,0-3.9,0.6-5.1,1.9
	c-1.2,1.2-1.8,3-1.8,5.1c0,2,0.6,3.7,1.8,4.9c1.2,1.2,2.8,1.8,4.8,1.8c2.1,0,3.8-0.6,5-1.9c1.2-1.3,1.8-3,1.8-5.1
	c0-2.1-0.6-3.7-1.7-4.9C310.3,222.2,308.7,221.6,306.6,221.6 M295,224.1v-2.3H292v13h3.1v-6.7c0-1.1,0.3-2.1,0.8-2.8
	c0.5-0.7,1.2-1,2-1c0.3,0,0.6,0,0.9,0.1c0.3,0.1,0.6,0.2,0.7,0.3l0.1,0.1v-3.1l0,0c-0.3-0.1-0.7-0.2-1.2-0.2c-0.8,0-1.5,0.2-2,0.7
	C295.7,222.8,295.4,223.4,295,224.1C295.1,224.1,295,224.1,295,224.1z M286.5,221.6c-1.4,0-2.7,0.3-3.7,0.9
	c-1.1,0.6-1.9,1.4-2.5,2.5c-0.6,1.1-0.8,2.3-0.8,3.7c0,1.2,0.3,2.4,0.8,3.4c0.5,1,1.3,1.8,2.3,2.3c1,0.5,2.1,0.8,3.3,0.8
	c1.5,0,2.7-0.3,3.7-0.9l0,0v-2.8l-0.1,0.1c-0.5,0.3-1,0.6-1.5,0.8c-0.5,0.2-1,0.3-1.5,0.3c-1.2,0-2.2-0.4-2.9-1.1
	c-0.7-0.7-1.1-1.8-1.1-3.1c0-1.3,0.4-2.4,1.1-3.2c0.7-0.8,1.7-1.2,2.9-1.2c1,0,2,0.3,2.9,1l0.1,0.1v-3l0,0c-0.3-0.2-0.8-0.4-1.4-0.5
	C287.6,221.6,287,221.6,286.5,221.6 M277.4,221.9h-3.1v13h3.1V221.9z M275.9,216.3c-0.5,0-0.9,0.2-1.3,0.5c-0.4,0.3-0.5,0.8-0.5,1.3
	c0,0.5,0.2,0.9,0.5,1.3c0.4,0.3,0.8,0.5,1.3,0.5c0.5,0,1-0.2,1.3-0.5c0.4-0.3,0.5-0.8,0.5-1.3c0-0.5-0.2-0.9-0.5-1.3
	C276.8,216.5,276.4,216.3,275.9,216.3 M268.2,220.9v14h3.1v-18.2H267l-5.5,13.5l-5.3-13.5h-4.5v18.2h2.9v-14h0.1l5.6,14h2.2l5.5-14
	L268.2,220.9L268.2,220.9z"/>
<path id="path5058" fill="#8C8C8C" d="M226.7,225.1h-14.4v-14.4h14.4V225.1z"/>
<path id="path5060" fill="#A9A9A9" d="M242.6,225.1h-14.4v-14.4h14.4V225.1z"/>
<path id="path5062" fill="#9A9A9A" d="M226.7,241h-14.4v-14.4h14.4V241z"/>
<path id="path5064" fill="#C8C8C8" d="M242.6,241h-14.4v-14.4h14.4V241z"/>
</svg>
