<?xml version="1.0" encoding="utf-8"?>
<!-- Generator: Adobe Illustrator 18.1.0, SVG Export Plug-In . SVG Version: 6.00 Build 0)  -->
<!DOCTYPE svg PUBLIC "-//W3C//DTD SVG 1.1//EN" "http://www.w3.org/Graphics/SVG/1.1/DTD/svg11.dtd">
<svg version="1.1" id="Layer_1" xmlns="http://www.w3.org/2000/svg" xmlns:xlink="http://www.w3.org/1999/xlink" x="0px" y="0px"
	 viewBox="-351.2 273.7 140 53.5" enable-background="new -351.2 273.7 140 53.5" xml:space="preserve">
<g>
	<path fill="#FFFFFF" d="M-302.6,302.3c0.1,0.7-0.2,2.1-1.8,2.1h-11.8c-1.3,0-2.2-1.1-1.8-2.4c0.2-0.7,1-1.4,2-1.2l0,0l0,0
		c-1.2-0.9-0.7-2.3-0.2-2.8c0.7-0.6,1.8-0.6,2.5,0.1l0,0l0,0c-0.4-0.9,0.1-2.2,1.3-2.4c0.9-0.2,1.8,0.3,2.1,1.1h0
		c0.2-0.5,0.6-1,1.3-1.1c1-0.2,2.6,0.7,2,2.4l0,0l0,0c0.6-0.6,1.6-0.7,2.3-0.1c0.7,0.5,1.1,2,0,2.8l0,0l0,0
		C-303.6,300.6-302.7,301.4-302.6,302.3"/>
	<path fill="#BFBFBF" d="M-310.9,304.3l-4.4-3c-1.1-0.8-2.2,0-2.5,0.8c-0.3,1.2,0.4,2.2,1.7,2.2L-310.9,304.3"/>
	<path fill="#CECECE" d="M-304.7,298.1c-0.9-0.7-2.1-0.4-2.6,0.8l-2.1,4.9l4.6-3.1C-303.7,299.9-304.1,298.6-304.7,298.1"/>
	<path fill="#A8A8A8" d="M-307.1,298.1c0.6-1.6-0.8-2.5-1.8-2.3c-1,0.2-1.3,1-1.3,1.7h0.4c0,0,0.3,0,0.4,0.1c0,0-0.7,0.3-0.7,0.7
		c0,0.6,0.1,0.8,0.3,1.8c0.2,1.5,0.5,3.1,0.5,3.1C-309.2,302.9-307.1,298.1-307.1,298.1"/>
	<path fill="#AFAFAF" d="M-302.8,302.4c-0.1-1.1-1.4-1.9-2.5-1.1c0,0-4.4,3-4.5,3c0.1,0,5.4,0,5.4,0
		C-302.9,304.3-302.7,303-302.8,302.4"/>
	<path fill="#C6C6C6" d="M-310.4,297.6c0.2-1.1-0.8-2-2-1.8c-1.1,0.2-1.5,1.4-1.1,2.2l2.2,5.2L-310.4,297.6"/>
	<path fill="#BFBFBF" d="M-311.3,303.8l-2.1-5c-0.5-1.2-1.9-1.3-2.6-0.6c-0.5,0.5-0.9,1.8,0.2,2.6L-311.3,303.8"/>
	<path fill="#848484" d="M-256,307.9c-3.4,10.1-13.5,17.5-25.3,17.5c-11.7,0-21.8-7.4-25.2-17.5h-0.2c3.2,11.1,13.3,19.3,25.4,19.3
		s22.3-8.1,25.4-19.3H-256 M-281.2,275.1c11.8,0,22,7.5,25.3,17.8h0.1c-3.2-11.1-13.3-19.3-25.4-19.3c-12.1,0-22.3,8.1-25.4,19.3
		h0.1C-303.3,282.6-293.1,275.1-281.2,275.1z"/>
	<path fill="#848484" d="M-293.1,297c0-0.1,0-0.2-0.4-0.3v-0.2h3.1v0.2c-0.4,0-0.4,0.1-0.4,0.3v4c0,2.6-1.8,3.5-4.1,3.5
		c-2.3,0-4.1-0.9-4.1-3.5v-4c0-0.1,0-0.2-0.4-0.3v-0.2h3.1v0.2c-0.4,0-0.4,0.1-0.4,0.3v4c0,1.1,0.7,1.6,1.9,1.6s1.9-0.5,1.9-1.6
		L-293.1,297"/>
	<path fill="#848484" d="M-279.4,303.8c0,0.2,0.2,0.3,0.5,0.3v0.2h-3.3v-0.2c0.2,0,0.5,0,0.5-0.2c0-0.4-2.3-2.4-4.3-4.8l0,0v4.7
		c0,0.2,0.2,0.3,0.5,0.3v0.2h-3v-0.2c0.2,0,0.4-0.1,0.4-0.3v-6.7c0-0.2-0.2-0.3-0.5-0.3v-0.2h4.2v0.2c-0.2,0-0.4,0.1-0.4,0.3
		c0,0.1,1.7,1.9,3.2,3.5v-3.5c0-0.2-0.2-0.3-0.5-0.3v-0.2h3.1v0.2c-0.3,0-0.5,0.1-0.5,0.3V303.8"/>
	<path fill="#848484" d="M-272.7,296.5v0.2c-0.4,0-0.6,0.1-0.6,0.3v6.7c0,0.2,0.2,0.3,0.6,0.3v0.2h-3.5v-0.2c0.4,0,0.6-0.1,0.6-0.3
		v-6.7c0-0.2-0.2-0.3-0.6-0.3v-0.2L-272.7,296.5"/>
	<path fill="#848484" d="M-270.8,296.5h3.3v0.2c-0.1,0-0.4,0-0.4,0.2c0,0.2,1.5,4,1.6,4.5h0c0.6-1.5,1.8-4.4,1.8-4.5
		c0-0.2-0.3-0.2-0.4-0.2v-0.2h3v0.2c-0.2,0-0.3,0.1-0.4,0.2c-0.2,0.7-2.7,6.7-2.7,6.9c0,0.2,0.2,0.3,0.4,0.3v0.2h-3.7v-0.2
		c0.2,0,0.4-0.1,0.4-0.3c0-0.1-2.3-6.9-2.5-7c-0.1-0.1-0.2-0.1-0.3-0.1V296.5"/>
	<path fill="#848484" d="M-252.8,302.8c0.2,0,0.4-0.1,0.5-0.4h0.2v2.4h-0.2c-0.1-0.3-0.2-0.4-0.5-0.4h-7.9v-0.2
		c0.2,0,0.5-0.1,0.5-0.3V297c0-0.2-0.2-0.3-0.5-0.3v-0.2h8c0.1,0,0.3-0.1,0.3-0.4h0.2v2.4h-0.2c0-0.4-0.2-0.4-0.3-0.4h-5.2v1.4h3.3
		c0.1,0,0.3-0.1,0.3-0.4h0.2v2.3h-0.2c0-0.3-0.2-0.4-0.3-0.4h-3.3v1.8L-252.8,302.8"/>
	<path fill="#848484" d="M-249.8,297c0-0.2-0.2-0.3-0.4-0.3v-0.2h5.7c1.7,0,2.9,0.9,2.9,2.5c0,1.3-0.9,2-2,2.4l1.6,2.4
		c0.1,0.2,0.4,0.4,0.6,0.4v0.2h-3.6v-0.2c0.2,0,0.4-0.1,0.4-0.2c0-0.2-1.2-2.2-1.3-2.5h-1.7v2.4c0,0.2,0.2,0.3,0.5,0.3v0.2h-3v-0.2
		c0.1,0,0.4-0.1,0.4-0.3L-249.8,297 M-247.6,299.9h2.5c0.7,0,1.2-0.3,1.2-1c0-0.5-0.3-1-1.3-1h-2.4L-247.6,299.9L-247.6,299.9z"/>
	<path fill="#848484" d="M-239.2,301.7l0.2,0.1c0,0.1,0,0.1,0,0.2c0,0.5,2,0.9,3.5,0.9c0.4,0,1.6-0.1,1.6-0.8c0-1.4-5.8,0-5.8-3
		c0-1.1,1-2.6,3.9-2.6c1.7,0,3.1,0.5,3.5,0.5c0.2,0,0.3-0.1,0.4-0.2l0.2,0.1l-1.1,2.2l-0.2-0.1c0-0.1,0-0.1,0-0.2
		c0-0.2-1.3-0.7-2.4-0.7c-0.4,0-2,0-2,0.8c0,1.3,5.8,0,5.8,3.1c0,1.4-1.2,2.6-3.9,2.6c-1.7,0-3.7-0.6-3.8-0.6
		c-0.2,0-0.3,0.1-0.4,0.2l-0.2-0.1L-239.2,301.7"/>
	<path fill="#848484" d="M-223.6,304.4v-0.2c0.1,0,0.2,0,0.2-0.2c0-0.2-0.4-0.9-0.5-1.2h-4.1c-0.1,0.3-0.5,1-0.5,1.2
		c0,0.2,0.2,0.2,0.2,0.2v0.2h-2.7v-0.2c0.1,0,0.3-0.1,0.4-0.2c1.4-3.3,3.1-6.8,3.1-7c0-0.1-0.1-0.2-0.2-0.2v-0.2h3.7v0.2
		c-0.2,0-0.2,0.1-0.2,0.2c0,0.2,2.5,5.2,3.3,7c0.1,0.1,0.2,0.2,0.4,0.2v0.2H-223.6 M-224.4,301.5l-1.5-3.1l-1.4,3.1H-224.4z"/>
	<path fill="#848484" d="M-218.9,297c0-0.2-0.2-0.3-0.5-0.3v-0.2h3.3v0.2c-0.3,0-0.5,0.1-0.5,0.3v5.5h4.8c0.1,0,0.3-0.1,0.3-0.4h0.2
		v2.7h-0.2c0-0.4-0.2-0.4-0.3-0.4h-7.7v-0.2c0.3,0,0.5-0.1,0.5-0.3L-218.9,297"/>
	<path fill="#848484" d="M-350.7,297c0-0.1,0-0.2-0.4-0.3v-0.2h3.6v0.2c-0.3,0-0.4,0.1-0.4,0.2c0,0.2,2.6,2.9,3.6,4v-4
		c0-0.2-0.1-0.3-0.3-0.3v-0.2h2.7v0.2c-0.4,0-0.4,0.1-0.4,0.3v6.9c0,0.1,0,0.2,0.4,0.3v0.2h-2.8v-0.2c0.3,0,0.3-0.1,0.3-0.2
		c0-0.2-0.4-0.4-4.3-4.8v4.7c0,0.1,0,0.2,0.4,0.3v0.2h-2.8v-0.2c0.4,0,0.4-0.1,0.4-0.3V297"/>
	<path fill="#848484" d="M-339.7,297c0-0.1,0-0.2-0.4-0.3v-0.2h5.6c1.6,0,2.8,0.6,2.8,2.1c0,0.9-0.6,1.4-1.4,1.6v0
		c1,0.3,1.7,0.8,1.7,1.9c0,1.2-0.9,2.2-3,2.2h-5.7v-0.2c0.4,0,0.4-0.1,0.4-0.3V297 M-337.5,299.5h2c1.3,0,1.6-0.1,1.6-0.7
		c0-0.6-0.3-0.7-1.6-0.7h-2C-337.5,298.1-337.5,299.5-337.5,299.5z M-337.5,302.8h2.5c1,0,1.4-0.2,1.4-0.9c0-0.6-0.4-0.9-1.4-0.9
		h-2.5C-337.5,301-337.5,302.8-337.5,302.8z"/>
	<path fill="#848484" d="M-322.7,299.4l-0.1-0.1c0-0.1,0-0.1,0-0.2c0-0.3-1.1-0.7-2.4-0.7c-1.2,0-2.8,0.5-2.8,2c0,1.5,1.6,2,2.8,2
		c0.5,0,2.5-0.4,2.5-0.8c0-0.1-0.1-0.1-0.1-0.2l0.2-0.1l1.5,2.3l-0.2,0.1c0-0.1-0.1-0.1-0.2-0.1c-0.3,0-1.7,0.8-3.9,0.8
		c-2.4,0-4.9-1.3-4.9-4c0-2.7,2.5-4,4.9-4c1.2,0,2,0.1,2.6,0.3c0.6,0.2,0.9,0.3,1,0.3c0.1,0,0.2,0,0.2-0.1l0.2,0L-322.7,299.4"/>
</g>
</svg>
