<?xml version="1.0" encoding="utf-8"?>
<!-- Generator: Adobe Illustrator 18.1.0, SVG Export Plug-In . SVG Version: 6.00 Build 0)  -->
<!DOCTYPE svg PUBLIC "-//W3C//DTD SVG 1.1//EN" "http://www.w3.org/Graphics/SVG/1.1/DTD/svg11.dtd">
<svg version="1.1" id="Layer_1" xmlns="http://www.w3.org/2000/svg" xmlns:xlink="http://www.w3.org/1999/xlink" x="0px" y="0px"
	 viewBox="0 0 100 70" enable-background="new 0 0 100 70" xml:space="preserve">
<g>
	<g>
		<path fill="#949494" d="M41.6,7.6c3.2-3.4,7.7-5.4,12.7-5.4c6.6,0,12.4,3.7,15.4,9.1c2.7-1.2,5.6-1.9,8.7-1.9
			c11.9,0,21.6,9.7,21.6,21.7c0,12-9.7,21.7-21.6,21.7c-1.5,0-2.9-0.1-4.2-0.4c-2.7,4.8-7.8,8.1-13.8,8.1c-2.5,0-4.8-0.6-6.9-1.6
			c-2.7,6.4-9.1,11-16.6,11c-7.7,0-14.3-4.9-16.9-11.8c-1.1,0.2-2.3,0.4-3.4,0.4C7.5,58.6,0,51,0,41.7C0,35.5,3.4,30,8.3,27.1
			c-1-2.4-1.6-5-1.6-7.7C6.7,8.7,15.4,0,26.2,0C32.5,0,38.1,3,41.6,7.6z"/>
	</g>
	<g>
		<g>
			<path fill="#FFFFFF" d="M14.5,36.3c-0.1,0.2,0,0.2,0,0.2c0.2,0.1,0.4,0.2,0.6,0.3c1,0.5,2,0.7,3,0.7c2.1,0,3.3-1.1,3.3-2.8v0
				c0-1.6-1.4-2.2-2.8-2.6L18.5,32c-1-0.3-1.9-0.6-1.9-1.3v0c0-0.6,0.5-1,1.3-1c0.9,0,1.9,0.3,2.6,0.7c0,0,0.2,0.1,0.3-0.1
				c0-0.1,0.4-1,0.4-1.1c0-0.1,0-0.2-0.1-0.2c-0.8-0.5-1.8-0.8-2.9-0.8l-0.2,0c-1.9,0-3.2,1.1-3.2,2.8v0c0,1.7,1.4,2.3,2.8,2.7
				l0.2,0.1c1,0.3,1.8,0.6,1.8,1.3v0c0,0.6-0.6,1.1-1.4,1.1c-0.3,0-1.4,0-2.6-0.8c-0.1-0.1-0.2-0.1-0.3-0.2c-0.1,0-0.2-0.1-0.3,0.1
				L14.5,36.3z"/>
			<path fill="#FFFFFF" d="M44.5,36.3c-0.1,0.2,0,0.2,0,0.2c0.2,0.1,0.4,0.2,0.6,0.3c1,0.5,2,0.7,3,0.7c2.1,0,3.3-1.1,3.3-2.8v0
				c0-1.6-1.4-2.2-2.8-2.6L48.5,32c-1-0.3-1.9-0.6-1.9-1.3v0c0-0.6,0.5-1,1.3-1c0.9,0,1.9,0.3,2.6,0.7c0,0,0.2,0.1,0.3-0.1
				c0-0.1,0.4-1,0.4-1.1c0-0.1,0-0.2-0.1-0.2c-0.8-0.5-1.8-0.8-2.9-0.8l-0.2,0c-1.9,0-3.2,1.1-3.2,2.8v0c0,1.7,1.4,2.3,2.8,2.7
				l0.2,0.1c1,0.3,1.8,0.6,1.8,1.3v0c0,0.6-0.6,1.1-1.4,1.1c-0.3,0-1.4,0-2.6-0.8c-0.1-0.1-0.2-0.1-0.3-0.2c0,0-0.2-0.1-0.3,0.1
				L44.5,36.3z"/>
			<path fill="#FFFFFF" d="M66.7,31c-0.2-0.6-0.4-1.1-0.8-1.5c-0.3-0.4-0.8-0.8-1.3-1c-0.5-0.2-1.1-0.4-1.8-0.4
				c-0.7,0-1.3,0.1-1.8,0.4c-0.5,0.2-1,0.6-1.3,1c-0.3,0.4-0.6,0.9-0.8,1.5c-0.2,0.6-0.3,1.2-0.3,1.8c0,0.7,0.1,1.3,0.3,1.8
				c0.2,0.6,0.4,1.1,0.8,1.5c0.3,0.4,0.8,0.8,1.3,1c0.5,0.2,1.1,0.4,1.8,0.4c0.7,0,1.3-0.1,1.8-0.4c0.5-0.2,1-0.6,1.3-1
				c0.3-0.4,0.6-0.9,0.8-1.5c0.2-0.6,0.3-1.2,0.3-1.8C67,32.2,66.9,31.6,66.7,31 M65,32.9c0,1-0.2,1.8-0.5,2.3
				c-0.4,0.5-0.9,0.8-1.7,0.8c-0.8,0-1.3-0.3-1.7-0.8c-0.4-0.6-0.5-1.3-0.5-2.3c0-1,0.2-1.8,0.5-2.3c0.4-0.5,0.9-0.8,1.7-0.8
				c0.8,0,1.3,0.3,1.7,0.8C64.8,31.1,65,31.9,65,32.9"/>
			<path fill-rule="evenodd" clip-rule="evenodd" fill="#FFFFFF" d="M80.8,35.7c-0.1-0.2-0.2-0.1-0.2-0.1c-0.2,0.1-0.5,0.2-0.8,0.2
				c-0.3,0-0.6,0.1-0.9,0.1c-0.8,0-1.5-0.2-2-0.7c-0.5-0.5-0.7-1.3-0.7-2.3c0-1,0.2-1.7,0.7-2.3c0.4-0.6,1.1-0.8,1.9-0.8
				c0.7,0,1.2,0.1,1.8,0.3c0,0,0.1,0.1,0.2-0.1c0.1-0.4,0.3-0.7,0.4-1.2c0-0.1-0.1-0.2-0.1-0.2c-0.2-0.1-0.7-0.2-1.1-0.3
				c-0.4-0.1-0.8-0.1-1.3-0.1c-0.7,0-1.4,0.1-1.9,0.4c-0.5,0.2-1,0.6-1.4,1c-0.4,0.4-0.6,0.9-0.8,1.5c-0.2,0.6-0.3,1.2-0.3,1.8
				c0,1.4,0.4,2.6,1.1,3.4c0.8,0.8,1.9,1.3,3.4,1.3c0.9,0,1.8-0.2,2.4-0.4c0,0,0.1-0.1,0.1-0.2L80.8,35.7z"/>
			<path fill-rule="evenodd" clip-rule="evenodd" fill="#FFFFFF" d="M89.5,30.7c-0.1-0.5-0.5-1.1-0.7-1.4c-0.4-0.4-0.7-0.7-1.1-0.8
				c-0.5-0.2-1-0.3-1.7-0.3c-0.7,0-1.4,0.1-1.9,0.4c-0.5,0.3-1,0.6-1.3,1c-0.4,0.4-0.6,0.9-0.8,1.5c-0.2,0.6-0.3,1.2-0.3,1.8
				c0,0.7,0.1,1.3,0.3,1.9c0.2,0.6,0.5,1.1,0.8,1.5c0.4,0.4,0.9,0.7,1.5,1c0.6,0.2,1.3,0.3,2.1,0.3c1.7,0,2.6-0.4,2.9-0.6
				c0.1,0,0.1-0.1,0-0.3L89,35.6c-0.1-0.2-0.2-0.1-0.2-0.1c-0.4,0.2-1,0.4-2.4,0.4c-0.9,0-1.6-0.3-2-0.7c-0.4-0.4-0.6-1-0.7-1.9
				l5.8,0c0,0,0.2,0,0.2-0.2C89.7,33.1,89.9,32,89.5,30.7z M83.8,31.9c0.1-0.6,0.2-1,0.5-1.4c0.4-0.5,0.9-0.8,1.7-0.8
				c0.8,0,1.3,0.3,1.6,0.8c0.2,0.4,0.3,0.8,0.4,1.4L83.8,31.9z"/>
			<path fill-rule="evenodd" clip-rule="evenodd" fill="#FFFFFF" d="M43.1,30.7c-0.1-0.5-0.5-1.1-0.7-1.4c-0.4-0.4-0.7-0.7-1.1-0.8
				c-0.5-0.2-1-0.3-1.7-0.3c-0.7,0-1.4,0.1-1.9,0.4c-0.5,0.3-1,0.6-1.3,1c-0.4,0.4-0.6,0.9-0.8,1.5c-0.2,0.6-0.3,1.2-0.3,1.8
				c0,0.7,0.1,1.3,0.3,1.9c0.2,0.6,0.5,1.1,0.8,1.5c0.4,0.4,0.9,0.7,1.5,1c0.6,0.2,1.3,0.3,2.1,0.3c1.7,0,2.6-0.4,2.9-0.6
				c0.1,0,0.1-0.1,0-0.3l-0.4-1.1c-0.1-0.2-0.2-0.1-0.2-0.1c-0.4,0.2-1,0.4-2.4,0.4c-0.9,0-1.6-0.3-2-0.7c-0.4-0.4-0.6-1-0.7-1.9
				l5.8,0c0,0,0.2,0,0.2-0.2C43.3,33.1,43.5,32,43.1,30.7z M37.4,31.9c0.1-0.6,0.2-1,0.5-1.4c0.4-0.5,0.9-0.8,1.7-0.8
				s1.3,0.3,1.6,0.8c0.2,0.4,0.3,0.8,0.4,1.4L37.4,31.9z"/>
			<path fill="#FFFFFF" d="M27.1,31.6c-0.2,0-0.5,0-0.9,0c-0.5,0-1,0.1-1.4,0.2c-0.5,0.1-0.9,0.3-1.2,0.6c-0.4,0.3-0.6,0.6-0.8,1
				c-0.2,0.4-0.3,0.8-0.3,1.3c0,0.5,0.1,1,0.3,1.3c0.2,0.4,0.4,0.7,0.8,0.9c0.3,0.2,0.7,0.4,1.2,0.5c0.5,0.1,1,0.2,1.5,0.2
				c0.6,0,1.2,0,1.8-0.1c0.6-0.1,1.3-0.2,1.5-0.3c0.2,0,0.4-0.1,0.4-0.1c0.1,0,0.1-0.2,0.1-0.2l0-5.3c0-1.2-0.3-2-0.9-2.6
				c-0.6-0.5-1.5-0.8-2.7-0.8c-0.4,0-1.1,0.1-1.6,0.1c0,0-1.3,0.2-1.8,0.7c0,0-0.1,0.1-0.1,0.2l0.4,1.1c0.1,0.1,0.2,0.1,0.2,0.1
				s0,0,0.1,0c1.1-0.6,2.5-0.6,2.5-0.6c0.6,0,1.1,0.1,1.4,0.4c0.3,0.2,0.5,0.6,0.5,1.4v0.2C27.6,31.7,27.1,31.6,27.1,31.6z
				 M24.8,35.7c-0.2-0.2-0.3-0.2-0.3-0.3c-0.1-0.2-0.2-0.4-0.2-0.8c0-0.5,0.2-0.9,0.5-1.1c0,0,0.5-0.4,1.7-0.4
				c0.8,0,1.6,0.1,1.6,0.1v2.6h0c0,0-0.7,0.2-1.6,0.2C25.4,36.1,24.8,35.7,24.8,35.7z"/>
			<path fill-rule="evenodd" clip-rule="evenodd" fill="#FFFFFF" d="M73.9,28.6c0-0.1,0-0.2-0.1-0.2c-0.1,0-0.6-0.1-1-0.2
				c-0.7,0-1.1,0.1-1.5,0.2c-0.4,0.2-0.8,0.4-1,0.7l0-0.7c0-0.1-0.1-0.2-0.2-0.2h-1.5c-0.1,0-0.2,0.1-0.2,0.2v8.6
				c0,0.1,0.1,0.2,0.2,0.2h1.5c0.1,0,0.2-0.1,0.2-0.2v-4.3c0-0.6,0.1-1.2,0.2-1.5c0.1-0.4,0.3-0.6,0.5-0.9c0.2-0.2,0.5-0.4,0.7-0.4
				c0.3-0.1,0.6-0.1,0.8-0.1c0.3,0,0.6,0.1,0.6,0.1c0.1,0,0.2-0.1,0.2-0.2C73.6,29.6,73.8,28.8,73.9,28.6z"/>
			<path fill-rule="evenodd" clip-rule="evenodd" fill="#FFFFFF" d="M59.6,24.6c-0.2-0.1-0.4-0.1-0.6-0.1c-0.2,0-0.5-0.1-0.8-0.1
				c-1,0-1.9,0.3-2.5,0.9c-0.6,0.6-1,1.5-1.2,2.6l-0.1,0.4h-1.3c0,0-0.2,0-0.2,0.2l-0.2,1.2c0,0.1,0,0.2,0.2,0.2h1.3L53,37.2
				c-0.1,0.6-0.2,1.1-0.3,1.4c-0.1,0.4-0.3,0.6-0.4,0.8c-0.1,0.2-0.3,0.3-0.5,0.4c-0.2,0.1-0.4,0.1-0.7,0.1c-0.1,0-0.3,0-0.5-0.1
				c-0.1,0-0.2-0.1-0.3-0.1c0,0-0.2-0.1-0.2,0.1c0,0.1-0.4,1.1-0.4,1.2c0,0.1,0,0.2,0.1,0.2c0.2,0.1,0.3,0.1,0.5,0.2
				c0.3,0.1,0.6,0.1,0.8,0.1c0.5,0,1-0.1,1.4-0.2c0.4-0.1,0.8-0.4,1.1-0.7c0.3-0.4,0.5-0.8,0.8-1.3c0.2-0.5,0.4-1.2,0.5-1.9l1.3-7.4
				H58c0,0,0.2,0,0.2-0.2l0.2-1.2c0-0.1,0-0.2-0.2-0.2h-1.9c0,0,0.1-0.7,0.3-1.3c0.1-0.3,0.3-0.5,0.4-0.6c0.1-0.1,0.3-0.2,0.5-0.3
				c0.2-0.1,0.4-0.1,0.6-0.1c0.2,0,0.3,0,0.5,0c0.2,0,0.2,0.1,0.3,0.1c0.2,0.1,0.2,0,0.3-0.1l0.4-1.2C59.7,24.7,59.6,24.7,59.6,24.6
				z"/>
			<path fill-rule="evenodd" clip-rule="evenodd" fill="#FFFFFF" d="M33.7,37.2c0,0.1-0.1,0.2-0.2,0.2H32c-0.1,0-0.2-0.1-0.2-0.2
				V24.8c0-0.1,0.1-0.2,0.2-0.2h1.5c0.1,0,0.2,0.1,0.2,0.2V37.2z"/>
		</g>
	</g>
</g>
</svg>
