<?xml version="1.0" encoding="utf-8"?>
<!-- Generator: Adobe Illustrator 18.1.0, SVG Export Plug-In . SVG Version: 6.00 Build 0)  -->
<!DOCTYPE svg PUBLIC "-//W3C//DTD SVG 1.1//EN" "http://www.w3.org/Graphics/SVG/1.1/DTD/svg11.dtd">
<svg version="1.1" id="Layer_2_2_" xmlns="http://www.w3.org/2000/svg" xmlns:xlink="http://www.w3.org/1999/xlink" x="0px" y="0px"
	 viewBox="-301.8 418.2 73 72.5" enable-background="new -301.8 418.2 73 72.5" xml:space="preserve">
<path fill="#606060" d="M-261.6,434c-0.3-0.1-1.9-0.3-3.7-0.3s-3.4,0.3-3.7,0.3c-0.2,0-0.3-0.1-0.1-0.3c0.1-0.1,3.8-2.9,3.8-2.9
	s3.7,2.8,3.8,2.9C-261.4,433.9-261.4,434.1-261.6,434z M-267.9,452.1c0,0-0.2,0.1-0.2,0.2c0.8,0.6,1.3,1.9,2.9,1.9
	c1.6,0,2.1-1.3,2.9-1.9c0-0.2-0.2-0.2-0.2-0.2s-1,0.2-2.6,0.2S-267.9,452.1-267.9,452.1z M-265.3,449.9c-0.4,0-0.5-0.2-0.8-0.2
	c-0.3,0-0.8,0.2-1,0.4c0,0.1,0,0.2,0.1,0.3c0.6,0.1,0.9,0.5,1.7,0.5c0.8,0,1-0.4,1.7-0.5c0.1-0.1,0.1-0.2,0.1-0.3
	c-0.1-0.2-0.7-0.4-1-0.4C-264.7,449.7-264.8,449.9-265.3,449.9z M-228.8,456.8c0,0.9-0.1,1.7-0.2,2.6c-4.1,0.7-5.6-3-9.8-2.8
	c0.3,0.9,0.5,1.8,0.6,2.7c3.5,0,4.9,3.3,8.8,2.8c-0.2,1-0.5,2-0.7,3c-3.1,0.3-4.2-2.8-7.7-2.7c0,0.5,0,1,0,1.5c0,0.3,0,0.6,0,0.9
	c3,0,4,2.8,6.9,2.6c-0.4,1-0.8,1.9-1.2,2.9c-2.1-0.1-2.8-2.8-5.9-2.6c-0.1,0.7-0.2,1.4-0.4,2c2.7-0.2,3.3,2.3,5.3,2.5
	c-0.5,0.9-1,1.8-1.6,2.7c-1.2-0.6-2.2-2.5-4.4-2.6c0.2-0.7,0.4-1.4,0.6-2.1c-2,0-4.2-0.8-6.1-2.5c0.6-3.5-4.8-7-4.8-9.5
	c0-2.8,1.4-4.3,1.4-8c0-2.8-1.3-5.7-3.4-7.8c-0.4-0.4-0.8-0.7-1.3-1c1.9,2.3,3.3,5,3.3,8.2c0,3.5-1.6,5.3-1.6,8.6
	c0,3.2,4.7,6,4.7,9.3c0,1.3-0.4,2.6-1.8,5.1c2.1,2.1,4.9,3.3,6.7,3.3c0.6,0,0.9-0.2,1.1-0.6c0.2-0.4,0.3-0.8,0.5-1.2
	c1.9,0.1,2.8,1.8,3.9,2.5c-0.6,0.8-1.2,1.5-1.8,2.3c-0.7-0.8-1.7-2.1-3.1-2.5c-0.3,0.5-0.5,1-0.8,1.4c1.2,0.3,2,1.5,2.7,2.3
	c-0.7,0.7-1.4,1.4-2.2,2.1c-0.5-0.7-1.2-1.6-2-2.1c-0.3,0.4-0.6,0.8-0.9,1.2c0.7,0.5,1.3,1.3,1.7,2c-0.9,0.7-1.8,1.3-2.7,2
	c-0.5-3.7-5.5-6.2-4.2-10.6c-0.4,0.8-1,1.7-1,2.8c0,3.1,3.3,5.6,3.6,8.7c-0.7,0.4-1.4,0.8-2.1,1.2c-0.1-3.4-3.6-7.1-3.6-9.9
	c0-3.1,4.1-6.2,4.1-9.9c0-3.7-4.7-6.2-4.7-9.5c0-3.2,2-5.1,2-9.2c0-3-1.4-6.1-3.7-8.1c-0.4-0.3-0.8-0.6-1.2-0.9
	c2.1,2.5,3.3,4.8,3.3,8.3c0,3.9-2.3,6.1-2.3,9.9c0,3.8,4.6,5.9,4.6,9.5c0,3.6-4.3,6.5-4.3,10.2c0,3.3,3.8,6.6,3.8,10.6
	c-0.8,0.4-1.7,0.7-2.5,1c0.5-4-3.8-8.1-3.8-11.3c0-3.6,4.5-6.6,4.5-10.4c0-3.8-4.5-5.6-4.5-9.5c0-3.9,2.8-6.1,2.8-10.4
	c0-3.4-1.7-6.4-4.1-8.3c-0.1,0-0.1-0.1-0.2-0.1c-0.2-0.2-0.4,0-0.3,0.2c1.7,2.2,2.7,4.3,2.7,7.6c0,4-3.2,7.2-3.2,11
	c0,4.5,4.3,5.8,4.3,9.6c0,3.7-4.6,6.7-4.6,10.7c0,3.7,4.4,7.7,3.6,12c-0.9,0.2-1.8,0.4-2.7,0.6c0.8-5.3-3.5-9.1-3.5-12.5
	c0-3.7,4.8-7.1,4.8-10.7c0-3.4-3.4-4.6-3.9-8.1c-0.1-0.5-0.4-0.8-1-0.7c-0.7,0.1-1.6,0.6-3,0.6c-1.4,0-2.3-0.5-3-0.6
	c-0.5-0.1-0.9,0.3-1,0.7c-0.4,3.5-3.9,4.6-3.9,8.1c0,3.6,4.8,7,4.8,10.7c0,3.4-4.3,7.2-3.5,12.5c-0.9-0.2-1.8-0.4-2.7-0.6
	c-0.7-4.2,3.6-8.3,3.6-12c0-4-4.6-6.9-4.6-10.7c0-3.7,4.3-5,4.3-9.6c0-3.8-3.2-7.1-3.2-11c0-3.2,0.9-5.4,2.7-7.6
	c0.2-0.2,0-0.4-0.3-0.2c-0.1,0-0.1,0.1-0.2,0.1c-2.4,1.9-4.1,4.9-4.1,8.3c0,4.3,2.8,6.5,2.8,10.4c0,3.9-4.5,5.7-4.5,9.5
	c0,3.8,4.5,6.9,4.5,10.4c0,3.2-4.3,7.4-3.8,11.3c-0.9-0.3-1.7-0.6-2.5-1c0.1-3.9,3.8-7.3,3.8-10.6c0-3.7-4.3-6.6-4.3-10.2
	c0-3.6,4.6-5.7,4.6-9.5c0-3.8-2.3-6-2.3-9.9c0-3.5,1.2-5.8,3.3-8.3c-0.5,0.2-0.9,0.5-1.2,0.9c-2.2,2-3.7,5-3.7,8.1c0,4.1,2,6,2,9.2
	c0,3.2-4.7,5.8-4.7,9.5c0,3.7,4.1,6.8,4.1,9.9c0,2.8-3.5,6.5-3.6,9.9c-0.7-0.4-1.4-0.8-2.1-1.2c0.3-3.1,3.6-5.6,3.6-8.7
	c0-1.1-0.5-2.1-1-2.8c1.4,4.3-3.7,6.8-4.2,10.6c-0.9-0.6-1.8-1.3-2.7-2c0.4-0.7,1-1.5,1.7-2c-0.3-0.4-0.6-0.8-0.9-1.2
	c-0.8,0.5-1.5,1.4-2,2.1c-0.7-0.7-1.5-1.3-2.2-2.1c0.6-0.8,1.5-2,2.7-2.3c-0.3-0.5-0.5-1-0.8-1.4c-1.4,0.4-2.4,1.7-3.1,2.5
	c-0.6-0.7-1.3-1.5-1.8-2.3c1.1-0.7,1.9-2.4,3.9-2.5c0.2,0.4,0.3,0.8,0.5,1.2c0.2,0.5,0.5,0.6,1.1,0.6c1.8,0,4.5-1.2,6.7-3.3
	c-1.4-2.5-1.8-3.8-1.8-5.1c0-3.3,4.7-6.1,4.7-9.3s-1.6-5.1-1.6-8.6c0-3.2,1.4-5.9,3.3-8.2c-0.5,0.3-0.9,0.6-1.3,1
	c-2,2-3.4,5-3.4,7.8c0,3.7,1.4,5.2,1.4,8c0,2.5-5.4,6.1-4.8,9.5c-1.9,1.7-4.1,2.5-6.1,2.5c0.2,0.7,0.4,1.4,0.6,2.1
	c-2.2,0.1-3.2,2-4.4,2.6c-0.6-0.9-1.1-1.8-1.6-2.7c2-0.2,2.6-2.7,5.3-2.5c-0.1-0.7-0.3-1.3-0.4-2c-3.2-0.2-3.9,2.5-5.9,2.6
	c-0.4-0.9-0.8-1.9-1.2-2.9c2.9,0.1,3.9-2.7,6.9-2.6c0-0.3,0-0.6,0-0.9c0-0.5,0-1,0-1.5c-3.6-0.1-4.6,3-7.7,2.7c-0.3-1-0.5-2-0.7-3
	c3.9,0.5,5.3-2.8,8.8-2.8c0.2-0.9,0.4-1.9,0.6-2.7c-4.2-0.2-5.7,3.5-9.8,2.8c-0.1-0.9-0.2-1.7-0.2-2.6c4.8,0.5,6.6-3.4,11-2.9
	c0.4-1,0.9-2.1,1.4-3c-5.5-1-7.3,3.6-12.5,2.9c0.6-19.7,16.7-35.5,36.5-35.5s35.9,15.8,36.5,35.5c-5.1,0.7-7-3.9-12.5-2.9
	c0.5,1,1,2,1.4,3C-235.4,453.4-233.6,457.3-228.8,456.8z M-281,441.5c-2.7-1.1-5.9-0.8-8.7,0.9c-0.4-2.6-1.8-4.9-3.8-6.3
	c-0.3-0.2-0.6,0-0.5,0.3c0.4,5.5-2.8,10.2-6.7,14.4c4,1.2,7.5-4,12.7-2.2C-286.1,445.8-283.8,443.4-281,441.5z M-265.3,438.1
	c-3.4,0-6.2,1.9-7,4.4c-0.1,0.2,0,0.3,0.2,0.2c0.6-0.3,1.3-0.4,2.1-0.4c1.4,0,2.6,0.5,3.3,1.4c0.3,1.1,0.3,2.6,0,3.4
	c-0.6-0.1-0.8-0.6-1.3-0.6s-1,0.4-1.9,0.4c-0.9,0-1.1-0.4-1.7-0.4c-0.7,0-0.9,0.8-0.9,1.6c0,3.8,3.5,9,7.2,9c3.7,0,7.2-5.2,7.2-9
	c0-0.8-0.2-1.6-0.9-1.7c-0.4,0.3-0.7,0.5-1.6,0.5c-0.9,0-1.2-0.4-1.8-0.4c-0.7,0-0.6,1.4-1.4,1.5c-0.5-1.3-0.6-2.9-0.1-4.4
	c0.7-0.9,1.9-1.4,3.3-1.4c0.8,0,1.5,0.1,2.1,0.4c0.2,0.1,0.3,0,0.2-0.2C-259.1,440.1-261.9,438.1-265.3,438.1z M-259.9,443.6
	c-0.8,0-1.8,0.2-2.4,0.9c-0.1,0.2-0.1,0.5,0,0.6c1.5-0.5,2.8-0.5,3.4,0.2c0.3-0.3,0.4-0.6,0.4-0.9
	C-258.4,443.9-258.9,443.6-259.9,443.6z M-271.7,445.3c0.7-0.7,2.2-0.7,3.8-0.1c0.1-0.8-1.3-1.6-2.7-1.6c-1,0-1.5,0.3-1.5,0.8
	C-272.2,444.7-272.1,445-271.7,445.3z M-248.4,432.5c-2.7,0.2-5,1.1-6.9,2.6c0.8-2.3,1.8-4.2,3.1-6.2c-3.4,0.4-6.3,1.6-8.3,3.7
	l-1.6-4.3l3.6-3.2l-4.8-0.3l-1.9-4.5l-1.9,4.5l-4.8,0.3l3.6,3.2l-1.6,4.3c-2.1-2.1-4.9-3.4-8.3-3.7c1.3,1.9,2.3,3.9,3.1,6.2
	c-1.9-1.5-4.2-2.5-6.9-2.6c1.6,2.1,3,4.3,4.1,6.6c0.1,0.3,0.4,0.4,0.7,0.2c3.7-1.8,7.8-2.8,12.2-2.8c4.4,0,8.5,1,12.2,2.8
	c0.3,0.1,0.5,0,0.6-0.2C-251.4,436.8-250,434.6-248.4,432.5z M-242.5,448.6c5.2-1.8,8.7,3.4,12.7,2.2c-3.9-4.2-7.1-8.9-6.7-14.4
	c0-0.3-0.3-0.5-0.5-0.3c-2,1.4-3.4,3.7-3.8,6.3c-2.8-1.8-6-2-8.7-0.9C-246.8,443.4-244.4,445.8-242.5,448.6z"/>
</svg>
