<?xml version="1.0" encoding="utf-8"?>
<!-- Generator: Adobe Illustrator 18.0.0, SVG Export Plug-In . SVG Version: 6.00 Build 0)  -->
<!DOCTYPE svg PUBLIC "-//W3C//DTD SVG 1.1//EN" "http://www.w3.org/Graphics/SVG/1.1/DTD/svg11.dtd">
<svg version="1.1" id="Layer_1" xmlns="http://www.w3.org/2000/svg" xmlns:xlink="http://www.w3.org/1999/xlink" x="0px" y="0px"
	 viewBox="0 0 460 500" enable-background="new 0 0 460 500" xml:space="preserve">
<g>
	<g>
		<polyline fill="none" stroke="#085170" stroke-linecap="round" stroke-linejoin="round" stroke-miterlimit="10" points="
			332.4,236.8 332.4,123.6 367.8,123.6 367.8,239.8 338.9,239.8 		"/>
		<g>
			
				<line fill="none" stroke="#085170" stroke-linecap="round" stroke-linejoin="round" stroke-miterlimit="10" x1="342" y1="129.5" x2="333" y2="129.5"/>
			
				<line fill="none" stroke="#085170" stroke-linecap="round" stroke-linejoin="round" stroke-miterlimit="10" x1="343" y1="134.5" x2="333" y2="134.5"/>
			
				<line fill="none" stroke="#085170" stroke-linecap="round" stroke-linejoin="round" stroke-miterlimit="10" x1="343" y1="145.5" x2="333" y2="145.5"/>
			
				<line fill="none" stroke="#085170" stroke-linecap="round" stroke-linejoin="round" stroke-miterlimit="10" x1="343" y1="155.5" x2="333" y2="155.5"/>
			
				<line fill="none" stroke="#085170" stroke-linecap="round" stroke-linejoin="round" stroke-miterlimit="10" x1="343" y1="165.5" x2="333" y2="165.5"/>
			
				<line fill="none" stroke="#085170" stroke-linecap="round" stroke-linejoin="round" stroke-miterlimit="10" x1="343" y1="176.5" x2="333" y2="176.5"/>
			
				<line fill="none" stroke="#085170" stroke-linecap="round" stroke-linejoin="round" stroke-miterlimit="10" x1="343" y1="186.5" x2="333" y2="186.5"/>
			
				<line fill="none" stroke="#085170" stroke-linecap="round" stroke-linejoin="round" stroke-miterlimit="10" x1="343" y1="197.5" x2="333" y2="197.5"/>
			
				<line fill="none" stroke="#085170" stroke-linecap="round" stroke-linejoin="round" stroke-miterlimit="10" x1="343" y1="208.5" x2="333" y2="208.5"/>
			
				<line fill="none" stroke="#085170" stroke-linecap="round" stroke-linejoin="round" stroke-miterlimit="10" x1="343" y1="217.5" x2="333" y2="217.5"/>
			
				<line fill="none" stroke="#085170" stroke-linecap="round" stroke-linejoin="round" stroke-miterlimit="10" x1="343" y1="228.5" x2="333" y2="228.5"/>
			
				<line fill="none" stroke="#085170" stroke-linecap="round" stroke-linejoin="round" stroke-miterlimit="10" x1="342" y1="139.5" x2="333" y2="139.5"/>
			
				<line fill="none" stroke="#085170" stroke-linecap="round" stroke-linejoin="round" stroke-miterlimit="10" x1="342" y1="150.5" x2="333" y2="150.5"/>
			
				<line fill="none" stroke="#085170" stroke-linecap="round" stroke-linejoin="round" stroke-miterlimit="10" x1="342" y1="160.5" x2="333" y2="160.5"/>
			
				<line fill="none" stroke="#085170" stroke-linecap="round" stroke-linejoin="round" stroke-miterlimit="10" x1="342" y1="171.5" x2="333" y2="171.5"/>
			
				<line fill="none" stroke="#085170" stroke-linecap="round" stroke-linejoin="round" stroke-miterlimit="10" x1="342" y1="181.5" x2="333" y2="181.5"/>
			
				<line fill="none" stroke="#085170" stroke-linecap="round" stroke-linejoin="round" stroke-miterlimit="10" x1="342" y1="191.5" x2="333" y2="191.5"/>
			
				<line fill="none" stroke="#085170" stroke-linecap="round" stroke-linejoin="round" stroke-miterlimit="10" x1="342" y1="202.5" x2="333" y2="202.5"/>
			
				<line fill="none" stroke="#085170" stroke-linecap="round" stroke-linejoin="round" stroke-miterlimit="10" x1="342" y1="212.5" x2="333" y2="212.5"/>
			
				<line fill="none" stroke="#085170" stroke-linecap="round" stroke-linejoin="round" stroke-miterlimit="10" x1="342" y1="223.5" x2="333" y2="223.5"/>
			
				<line fill="none" stroke="#085170" stroke-linecap="round" stroke-linejoin="round" stroke-miterlimit="10" x1="342" y1="233.5" x2="333" y2="233.5"/>
		</g>
	</g>
	<g>
		<path fill="none" stroke="#085170" stroke-linecap="round" stroke-linejoin="round" stroke-miterlimit="10" d="M112.4,85.9
			l-0.1,117.5c0,5.6-4.6,10.2-10.2,10.2l-75.9,0c-5.6,0-10.2-4.6-10.2-10.2l0.1-117.5c0-5.6,4.6-10.2,10.2-10.2l75.9,0
			C107.9,75.8,112.4,80.3,112.4,85.9z"/>
		<g>
			
				<rect x="27.6" y="88.1" fill="none" stroke="#085170" stroke-linecap="round" stroke-linejoin="round" stroke-miterlimit="10" width="72.4" height="26.6"/>
			
				<rect x="27.6" y="123.1" fill="none" stroke="#085170" stroke-linecap="round" stroke-linejoin="round" stroke-miterlimit="10" width="13.5" height="13.5"/>
			
				<rect x="87" y="94.2" fill="none" stroke="#085170" stroke-linecap="round" stroke-linejoin="round" stroke-miterlimit="10" width="3.7" height="13.5"/>
			
				<rect x="47.2" y="123.1" fill="none" stroke="#085170" stroke-linecap="round" stroke-linejoin="round" stroke-miterlimit="10" width="13.5" height="13.5"/>
			
				<rect x="66.9" y="123.1" fill="none" stroke="#085170" stroke-linecap="round" stroke-linejoin="round" stroke-miterlimit="10" width="13.5" height="13.5"/>
			
				<rect x="86.5" y="123.1" fill="none" stroke="#085170" stroke-linecap="round" stroke-linejoin="round" stroke-miterlimit="10" width="13.5" height="13.5"/>
			
				<rect x="27.6" y="144.7" fill="none" stroke="#085170" stroke-linecap="round" stroke-linejoin="round" stroke-miterlimit="10" width="13.5" height="13.5"/>
			
				<rect x="47.2" y="144.7" fill="none" stroke="#085170" stroke-linecap="round" stroke-linejoin="round" stroke-miterlimit="10" width="13.5" height="13.5"/>
			
				<rect x="66.9" y="144.7" fill="none" stroke="#085170" stroke-linecap="round" stroke-linejoin="round" stroke-miterlimit="10" width="13.5" height="13.5"/>
			
				<rect x="86.5" y="144.7" fill="none" stroke="#085170" stroke-linecap="round" stroke-linejoin="round" stroke-miterlimit="10" width="13.5" height="13.5"/>
			
				<rect x="27.6" y="166.2" fill="none" stroke="#085170" stroke-linecap="round" stroke-linejoin="round" stroke-miterlimit="10" width="13.5" height="13.5"/>
			
				<rect x="47.2" y="166.2" fill="none" stroke="#085170" stroke-linecap="round" stroke-linejoin="round" stroke-miterlimit="10" width="13.5" height="13.5"/>
			
				<rect x="66.8" y="166.2" fill="none" stroke="#085170" stroke-linecap="round" stroke-linejoin="round" stroke-miterlimit="10" width="13.5" height="13.5"/>
			
				<rect x="86.5" y="166.2" fill="none" stroke="#085170" stroke-linecap="round" stroke-linejoin="round" stroke-miterlimit="10" width="13.5" height="13.5"/>
			
				<rect x="27.5" y="187.8" fill="none" stroke="#085170" stroke-linecap="round" stroke-linejoin="round" stroke-miterlimit="10" width="13.5" height="13.5"/>
			
				<rect x="47.2" y="187.8" fill="none" stroke="#085170" stroke-linecap="round" stroke-linejoin="round" stroke-miterlimit="10" width="13.5" height="13.5"/>
			
				<rect x="66.8" y="187.8" fill="none" stroke="#085170" stroke-linecap="round" stroke-linejoin="round" stroke-miterlimit="10" width="34.1" height="13.5"/>
		</g>
	</g>
	<g>
		<polyline fill="none" stroke="#085170" stroke-linecap="round" stroke-linejoin="round" stroke-miterlimit="10" points="
			32.7,323.3 32.7,307.1 156,307.1 156,466.7 137.7,466.7 		"/>
		<g>
			
				<rect x="14.3" y="323.4" fill="none" stroke="#085170" stroke-linecap="round" stroke-linejoin="round" stroke-miterlimit="10" width="123.3" height="159.6"/>
			<polyline fill="none" stroke="#085170" stroke-linecap="round" stroke-linejoin="round" stroke-miterlimit="10" points="
				29.3,393.6 38.7,372 44.7,382.4 53.7,354 64.1,392.1 75.4,371 79.1,381 88.4,361.3 94.3,377.7 107.6,350.9 113.3,364.6 			"/>
		</g>
	</g>
	<g>
		<g>
			<polyline fill="none" stroke="#085170" stroke-linecap="round" stroke-linejoin="round" stroke-miterlimit="10" points="
				338.9,239.8 447.3,239.8 447.3,462.4 431.9,462.4 			"/>
			<path fill="none" stroke="#085170" stroke-linecap="round" stroke-linejoin="round" stroke-miterlimit="10" d="M288.7,249.3V246
				c0-3.4,2.8-6.2,6.2-6.2h15.5"/>
		</g>
		<polyline fill="none" stroke="#085170" stroke-linecap="round" stroke-linejoin="round" stroke-miterlimit="10" points="
			310.7,250 310.7,237.6 338.4,237.6 338.4,253.8 		"/>
	</g>
	<g>
		<g>
			<g>
				<path fill="none" stroke="#085170" stroke-linecap="round" stroke-linejoin="round" stroke-miterlimit="10" d="M313.7,253.9h109
					l9.1,0.4v222.3h-9.1H274c-5,0-9.1-4.1-9.1-9.1V263c0-5,4.1-9.1,9.1-9.1h10.9"/>
			</g>
			<g>
				
					<rect x="290.8" y="315.8" fill="none" stroke="#085170" stroke-linecap="round" stroke-linejoin="round" stroke-miterlimit="10" width="8" height="33.2"/>
				
					<rect x="307.2" y="323.1" fill="none" stroke="#085170" stroke-linecap="round" stroke-linejoin="round" stroke-miterlimit="10" width="8" height="25.9"/>
				
					<rect x="323.2" y="307" fill="none" stroke="#085170" stroke-linecap="round" stroke-linejoin="round" stroke-miterlimit="10" width="8" height="41.9"/>
				
					<rect x="339.3" y="330.3" fill="none" stroke="#085170" stroke-linecap="round" stroke-linejoin="round" stroke-miterlimit="10" width="8" height="18.7"/>
				
					<rect x="355.5" y="317.1" fill="none" stroke="#085170" stroke-linecap="round" stroke-linejoin="round" stroke-miterlimit="10" width="8" height="31.8"/>
				
					<rect x="371.6" y="304.7" fill="none" stroke="#085170" stroke-linecap="round" stroke-linejoin="round" stroke-miterlimit="10" width="8.4" height="44.2"/>
				
					<rect x="387.7" y="317.4" fill="none" stroke="#085170" stroke-linecap="round" stroke-linejoin="round" stroke-miterlimit="10" width="8" height="31.5"/>
				
					<rect x="403.6" y="325.6" fill="none" stroke="#085170" stroke-linecap="round" stroke-linejoin="round" stroke-miterlimit="10" width="8" height="23.3"/>
			</g>
		</g>
		<polygon fill="none" stroke="#085170" stroke-linecap="round" stroke-linejoin="round" stroke-miterlimit="10" points="
			312.9,308.4 299.1,302.1 285.2,308.4 285.2,250 312.9,250 		"/>
	</g>
	<g>
		<polygon fill="none" stroke="#085170" stroke-linecap="round" stroke-linejoin="round" stroke-miterlimit="10" points="
			265.5,166.5 279.5,166.5 279.5,15.5 156.5,15.5 156.5,27.5 265.5,27.5 		"/>
		<polygon fill="none" stroke="#085170" stroke-linecap="round" stroke-linejoin="round" stroke-miterlimit="10" points="
			250.5,38.5 250.5,166.5 265.5,166.5 265.5,27.5 156.6,27.5 142.5,27.5 142.5,38.5 		"/>
		<polyline fill="none" stroke="#085170" stroke-linecap="round" stroke-linejoin="round" stroke-miterlimit="10" points="
			182,166.5 250.5,166.5 250.5,38.5 142.2,38.5 127.5,38.5 127.5,166.5 167,166.5 		"/>
	</g>
	<line fill="none" stroke="#085170" stroke-linejoin="round" stroke-miterlimit="10" x1="57.5" y1="284" x2="57.5" y2="307"/>
	
		<line fill="none" stroke="#085170" stroke-linecap="round" stroke-linejoin="round" stroke-miterlimit="10" x1="57.5" y1="214" x2="57.5" y2="237"/>
	<path fill="none" stroke="#085170" stroke-linecap="round" stroke-linejoin="round" stroke-miterlimit="10" d="M418.3,238.8
		c0.1-58.5,0.5-105.1,0.5-102.3c0,30.8-50.5,30.3-50.5,30.3"/>
	<line fill="none" stroke="#085170" stroke-linejoin="round" stroke-miterlimit="10" x1="246" y1="357.5" x2="265" y2="357.5"/>
	
		<line fill="none" stroke="#085170" stroke-linecap="round" stroke-linejoin="round" stroke-miterlimit="10" x1="200" y1="357.5" x2="218" y2="357.5"/>
	<line fill="none" stroke="#085170" stroke-linejoin="round" stroke-miterlimit="10" x1="156" y1="357.5" x2="185" y2="357.5"/>
	<g>
		
			<line fill="none" stroke="#085170" stroke-linecap="round" stroke-linejoin="round" stroke-miterlimit="10" x1="185" y1="333.5" x2="157" y2="333.5"/>
		<path fill="none" stroke="#085170" stroke-linecap="round" stroke-linejoin="round" stroke-miterlimit="10" d="M184.7,333.8"/>
		
			<line fill="none" stroke="#085170" stroke-linecap="round" stroke-linejoin="round" stroke-miterlimit="10" x1="265" y1="333.5" x2="200" y2="333.5"/>
		<polyline fill="none" stroke="#085170" stroke-linecap="round" stroke-linejoin="round" stroke-miterlimit="10" points="
			180,187.5 283.5,187.5 283.5,253 		"/>
		
			<line fill="none" stroke="#085170" stroke-linecap="round" stroke-linejoin="round" stroke-miterlimit="10" x1="113" y1="187.5" x2="169" y2="187.5"/>
		
			<line fill="none" stroke="#085170" stroke-linecap="round" stroke-linejoin="round" stroke-miterlimit="10" x1="82.5" y1="306" x2="82.5" y2="214"/>
		
			<line fill="none" stroke="#085170" stroke-linecap="round" stroke-linejoin="round" stroke-miterlimit="10" x1="198" y1="319.5" x2="265" y2="319.5"/>
		
			<line fill="none" stroke="#085170" stroke-linecap="round" stroke-linejoin="round" stroke-miterlimit="10" x1="157" y1="319.5" x2="187" y2="319.5"/>
		
			<line fill="none" stroke="#085170" stroke-linecap="round" stroke-linejoin="round" stroke-miterlimit="10" x1="156" y1="306.5" x2="265" y2="306.5"/>
		
			<line fill="none" stroke="#085170" stroke-linecap="round" stroke-linejoin="round" stroke-miterlimit="10" x1="83" y1="292.5" x2="265" y2="292.5"/>
		
			<line fill="none" stroke="#085170" stroke-linecap="round" stroke-linejoin="round" stroke-miterlimit="10" x1="83" y1="279.5" x2="265" y2="279.5"/>
		
			<line fill="none" stroke="#085170" stroke-linecap="round" stroke-linejoin="round" stroke-miterlimit="10" x1="83" y1="266.5" x2="265" y2="266.5"/>
		
			<line fill="none" stroke="#085170" stroke-linecap="round" stroke-linejoin="round" stroke-miterlimit="10" x1="83" y1="253.5" x2="283" y2="253.5"/>
		
			<line fill="none" stroke="#085170" stroke-linecap="round" stroke-linejoin="round" stroke-miterlimit="10" x1="83" y1="240.5" x2="283" y2="240.5"/>
		
			<line fill="none" stroke="#085170" stroke-linecap="round" stroke-linejoin="round" stroke-miterlimit="10" x1="83" y1="227.5" x2="283" y2="227.5"/>
		
			<line fill="none" stroke="#085170" stroke-linecap="round" stroke-linejoin="round" stroke-miterlimit="10" x1="83" y1="213.5" x2="283" y2="213.5"/>
		
			<line fill="none" stroke="#085170" stroke-linecap="round" stroke-linejoin="round" stroke-miterlimit="10" x1="113" y1="200.5" x2="283" y2="200.5"/>
		
			<line fill="none" stroke="#085170" stroke-linecap="round" stroke-linejoin="round" stroke-miterlimit="10" x1="265.5" y1="188" x2="265.5" y2="261"/>
		
			<line fill="none" stroke="#085170" stroke-linecap="round" stroke-linejoin="round" stroke-miterlimit="10" x1="247.5" y1="188" x2="247.5" y2="333"/>
		
			<line fill="none" stroke="#085170" stroke-linecap="round" stroke-linejoin="round" stroke-miterlimit="10" x1="228.5" y1="188" x2="228.5" y2="333"/>
		
			<line fill="none" stroke="#085170" stroke-linecap="round" stroke-linejoin="round" stroke-miterlimit="10" x1="210.5" y1="188" x2="210.5" y2="333"/>
		
			<line fill="none" stroke="#085170" stroke-linecap="round" stroke-linejoin="round" stroke-miterlimit="10" x1="192.5" y1="188" x2="192.5" y2="307"/>
		
			<line fill="none" stroke="#085170" stroke-linecap="round" stroke-linejoin="round" stroke-miterlimit="10" x1="174.5" y1="200" x2="174.5" y2="333"/>
		
			<line fill="none" stroke="#085170" stroke-linecap="round" stroke-linejoin="round" stroke-miterlimit="10" x1="156.5" y1="188" x2="156.5" y2="306"/>
		
			<line fill="none" stroke="#085170" stroke-linecap="round" stroke-linejoin="round" stroke-miterlimit="10" x1="138.5" y1="188" x2="138.5" y2="306"/>
		
			<line fill="none" stroke="#085170" stroke-linecap="round" stroke-linejoin="round" stroke-miterlimit="10" x1="119.5" y1="188" x2="119.5" y2="306"/>
		
			<line fill="none" stroke="#085170" stroke-linecap="round" stroke-linejoin="round" stroke-miterlimit="10" x1="101.5" y1="214" x2="101.5" y2="306"/>
	</g>
	<g>
		<path fill="none" stroke="#085170" stroke-linecap="round" stroke-linejoin="round" stroke-miterlimit="10" d="M307.3,43.2
			l94.6-0.1c5.6,0,10.2,4.5,10.2,10.1l0.1,60c0,5.6-4.5,10.2-10.1,10.2l-94.6,0.1c-5.6,0-10.2-4.5-10.2-10.1l-0.1-60
			C297.2,47.8,301.7,43.2,307.3,43.2z"/>
		<g>
			
				<rect x="288.4" y="72.7" transform="matrix(-8.546550e-04 -1 1 -8.546550e-04 235.0922 402.4203)" fill="none" stroke="#085170" stroke-linecap="round" stroke-linejoin="round" stroke-miterlimit="10" width="60.4" height="22.2"/>
			
				<rect x="336.7" y="102.7" transform="matrix(-8.546550e-04 -1 1 -8.546550e-04 234.3065 450.7376)" fill="none" stroke="#085170" stroke-linecap="round" stroke-linejoin="round" stroke-miterlimit="10" width="11.2" height="11.2"/>
			
				<rect x="312.5" y="61.3" fill="none" stroke="#085170" stroke-linecap="round" stroke-linejoin="round" stroke-miterlimit="10" width="11.2" height="2.4"/>
			
				<rect x="336.7" y="86.3" transform="matrix(-8.546550e-04 -1 1 -8.546550e-04 250.6735 434.3286)" fill="none" stroke="#085170" stroke-linecap="round" stroke-linejoin="round" stroke-miterlimit="10" width="11.2" height="11.2"/>
			
				<rect x="336.7" y="69.9" transform="matrix(-8.546550e-04 -1 1 -8.546550e-04 267.0404 417.9196)" fill="none" stroke="#085170" stroke-linecap="round" stroke-linejoin="round" stroke-miterlimit="10" width="11.2" height="11.2"/>
			
				<rect x="336.7" y="53.6" transform="matrix(-8.546550e-04 -1 1 -8.546550e-04 283.4074 401.5107)" fill="none" stroke="#085170" stroke-linecap="round" stroke-linejoin="round" stroke-miterlimit="10" width="11.2" height="11.2"/>
			
				<rect x="354.7" y="102.7" transform="matrix(-8.546550e-04 -1 1 -8.546550e-04 252.3058 468.6908)" fill="none" stroke="#085170" stroke-linecap="round" stroke-linejoin="round" stroke-miterlimit="10" width="11.2" height="11.2"/>
			
				<rect x="354.7" y="86.3" transform="matrix(-8.546550e-04 -1 1 -8.546550e-04 268.6728 452.2819)" fill="none" stroke="#085170" stroke-linecap="round" stroke-linejoin="round" stroke-miterlimit="10" width="11.2" height="11.2"/>
			
				<rect x="354.7" y="69.9" transform="matrix(-8.546550e-04 -1 1 -8.546550e-04 285.0397 435.8729)" fill="none" stroke="#085170" stroke-linecap="round" stroke-linejoin="round" stroke-miterlimit="10" width="11.2" height="11.2"/>
			
				<rect x="354.6" y="53.5" transform="matrix(-8.546550e-04 -1 1 -8.546550e-04 301.4067 419.4639)" fill="none" stroke="#085170" stroke-linecap="round" stroke-linejoin="round" stroke-miterlimit="10" width="11.2" height="11.2"/>
			
				<rect x="372.7" y="102.7" transform="matrix(-8.546550e-04 -1 1 -8.546550e-04 270.3051 486.644)" fill="none" stroke="#085170" stroke-linecap="round" stroke-linejoin="round" stroke-miterlimit="10" width="11.2" height="11.2"/>
			
				<rect x="372.6" y="86.3" transform="matrix(-8.546550e-04 -1 1 -8.546550e-04 286.6721 470.2351)" fill="none" stroke="#085170" stroke-linecap="round" stroke-linejoin="round" stroke-miterlimit="10" width="11.2" height="11.2"/>
			
				<rect x="372.6" y="69.9" transform="matrix(-8.546550e-04 -1 1 -8.546550e-04 303.0391 453.8261)" fill="none" stroke="#085170" stroke-linecap="round" stroke-linejoin="round" stroke-miterlimit="10" width="11.2" height="11.2"/>
			
				<rect x="372.6" y="53.5" transform="matrix(-8.546550e-04 -1 1 -8.546550e-04 319.406 437.4171)" fill="none" stroke="#085170" stroke-linecap="round" stroke-linejoin="round" stroke-miterlimit="10" width="11.2" height="11.2"/>
			
				<rect x="390.6" y="102.7" transform="matrix(-8.546550e-04 -1 1 -8.546550e-04 288.3045 504.5973)" fill="none" stroke="#085170" stroke-linecap="round" stroke-linejoin="round" stroke-miterlimit="10" width="11.2" height="11.2"/>
			
				<rect x="390.6" y="86.3" transform="matrix(-8.546550e-04 -1 1 -8.546550e-04 304.6714 488.1883)" fill="none" stroke="#085170" stroke-linecap="round" stroke-linejoin="round" stroke-miterlimit="10" width="11.2" height="11.2"/>
			
				<rect x="382" y="61.3" transform="matrix(-8.546550e-04 -1 1 -8.546550e-04 329.636 463.1596)" fill="none" stroke="#085170" stroke-linecap="round" stroke-linejoin="round" stroke-miterlimit="10" width="28.4" height="11.2"/>
		</g>
	</g>
	<path fill="none" stroke="#085170" stroke-linecap="round" stroke-linejoin="round" stroke-miterlimit="10" d="M199.6,430.9
		c0,0,1.7,9.6-7.5,9.6c-9.1,0-7.5-9.6-7.5-9.6l0-106.2l7.5-17.9l7.5,17.9L199.6,430.9z"/>
	<path fill="none" stroke="#085170" stroke-linecap="round" stroke-linejoin="round" stroke-miterlimit="10" d="M61,284.6l-21.5-0.1
		c-1.6,0-3-1.4-3-3l0.2-41.3c0-1.6,1.4-3,3-3l21.5,0.1c1.6,0,3,1.4,3,3L64,281.6C64,283.3,62.6,284.6,61,284.6z"/>
	<path fill="none" stroke="#085170" stroke-linecap="round" stroke-linejoin="round" stroke-miterlimit="10" d="M243.2,397.2
		l-21.5,0.2c-1.6,0-3-1.3-3-3l-0.4-41.3c0-1.6,1.3-3,3-3l21.5-0.2c1.6,0,3,1.3,3,3l0.4,41.3C246.1,395.8,244.8,397.2,243.2,397.2z"
		/>
	<path fill="none" stroke="#085170" stroke-linecap="round" stroke-linejoin="round" stroke-miterlimit="10" d="M166.7,76.5
		c0,0-1.7-9.6,7.5-9.6c9.1,0,7.5,9.6,7.5,9.6l0,106.2l-7.5,17.9l-7.5-17.9L166.7,76.5z"/>
	
		<line fill="none" stroke="#085170" stroke-linecap="round" stroke-linejoin="round" stroke-miterlimit="10" x1="167" y1="166.5" x2="113" y2="166.5"/>
	<line fill="none" stroke="#085170" stroke-linejoin="round" stroke-miterlimit="10" x1="333" y1="166.5" x2="279" y2="166.5"/>
</g>
</svg>
