<?xml version="1.0" encoding="utf-8"?>
<!-- Generator: Adobe Illustrator 18.0.0, SVG Export Plug-In . SVG Version: 6.00 Build 0)  -->
<!DOCTYPE svg PUBLIC "-//W3C//DTD SVG 1.1//EN" "http://www.w3.org/Graphics/SVG/1.1/DTD/svg11.dtd">
<svg version="1.1" id="Layer_1" xmlns="http://www.w3.org/2000/svg" xmlns:xlink="http://www.w3.org/1999/xlink" x="0px" y="0px"
	 viewBox="0 0 460 500" enable-background="new 0 0 460 500" xml:space="preserve">
<g>
	<path fill="none" stroke="#0081BA" stroke-miterlimit="10" d="M393.1,257.9h-323c-4.6,0-8.3-3.7-8.3-8.3V44c0-4.6,3.7-8.3,8.3-8.3
		h323c4.6,0,8.3,3.7,8.3,8.3v205.5C401.4,254.1,397.7,257.9,393.1,257.9z"/>
	<path fill="none" stroke="#0081BA" stroke-miterlimit="10" d="M426,35.4H37.2c-3.6,0-6.5-2.9-6.5-6.5V23c0-3.6,2.9-6.5,6.5-6.5
		l388.8,0c3.6,0,6.5,2.9,6.5,6.5v5.9C432.5,32.5,429.6,35.4,426,35.4z"/>
	<rect x="150.9" y="35.4" fill="none" stroke="#0081BA" stroke-miterlimit="10" width="161.3" height="13"/>
	<rect x="184.4" y="195.5" fill="none" stroke="#0081BA" stroke-miterlimit="10" width="94.4" height="50.5"/>
	<g>
		<rect x="100.3" y="71.1" fill="none" stroke="#0081BA" stroke-miterlimit="10" width="20.4" height="13.5"/>
		<rect x="127.2" y="71.1" fill="none" stroke="#0081BA" stroke-miterlimit="10" width="20.4" height="13.5"/>
		<rect x="154.1" y="71.1" fill="none" stroke="#0081BA" stroke-miterlimit="10" width="20.4" height="13.5"/>
		<rect x="181" y="71.1" fill="none" stroke="#0081BA" stroke-miterlimit="10" width="20.4" height="13.5"/>
		<rect x="207.9" y="71.1" fill="none" stroke="#0081BA" stroke-miterlimit="10" width="20.4" height="13.5"/>
		<rect x="234.8" y="71.1" fill="none" stroke="#0081BA" stroke-miterlimit="10" width="20.4" height="13.5"/>
		<rect x="261.7" y="71.1" fill="none" stroke="#0081BA" stroke-miterlimit="10" width="20.4" height="13.5"/>
		<rect x="288.6" y="71.1" fill="none" stroke="#0081BA" stroke-miterlimit="10" width="20.4" height="13.5"/>
		<rect x="315.5" y="71.1" fill="none" stroke="#0081BA" stroke-miterlimit="10" width="20.4" height="13.5"/>
		<rect x="342.4" y="71.1" fill="none" stroke="#0081BA" stroke-miterlimit="10" width="20.4" height="13.5"/>
		<rect x="100.3" y="91.4" fill="none" stroke="#0081BA" stroke-miterlimit="10" width="20.4" height="19.5"/>
		<rect x="127" y="91.4" fill="none" stroke="#0081BA" stroke-miterlimit="10" width="20.4" height="19.5"/>
		<rect x="153.6" y="91.4" fill="none" stroke="#0081BA" stroke-miterlimit="10" width="20.4" height="19.5"/>
		<rect x="180.3" y="91.4" fill="none" stroke="#0081BA" stroke-miterlimit="10" width="20.4" height="19.5"/>
		<rect x="206.9" y="91.4" fill="none" stroke="#0081BA" stroke-miterlimit="10" width="20.4" height="19.5"/>
		<rect x="233.6" y="91.4" fill="none" stroke="#0081BA" stroke-miterlimit="10" width="20.4" height="19.5"/>
		<rect x="260.2" y="91.4" fill="none" stroke="#0081BA" stroke-miterlimit="10" width="20.4" height="19.5"/>
		<rect x="286.9" y="91.4" fill="none" stroke="#0081BA" stroke-miterlimit="10" width="20.4" height="19.5"/>
		<rect x="313.5" y="91.4" fill="none" stroke="#0081BA" stroke-miterlimit="10" width="49.3" height="19.5"/>
		<rect x="100.3" y="115.9" fill="none" stroke="#0081BA" stroke-miterlimit="10" width="35.3" height="19.5"/>
		<rect x="327.5" y="115.9" fill="none" stroke="#0081BA" stroke-miterlimit="10" width="35.3" height="19.5"/>
		<rect x="143.9" y="115.9" fill="none" stroke="#0081BA" stroke-miterlimit="10" width="20.4" height="19.5"/>
		<rect x="170" y="115.9" fill="none" stroke="#0081BA" stroke-miterlimit="10" width="20.4" height="19.5"/>
		<rect x="196.1" y="115.9" fill="none" stroke="#0081BA" stroke-miterlimit="10" width="20.4" height="19.5"/>
		<rect x="222.2" y="115.9" fill="none" stroke="#0081BA" stroke-miterlimit="10" width="20.4" height="19.5"/>
		<rect x="248.3" y="115.9" fill="none" stroke="#0081BA" stroke-miterlimit="10" width="20.4" height="19.5"/>
		<rect x="274.4" y="115.9" fill="none" stroke="#0081BA" stroke-miterlimit="10" width="20.4" height="19.5"/>
		<rect x="300.5" y="115.9" fill="none" stroke="#0081BA" stroke-miterlimit="10" width="20.4" height="19.5"/>
		<rect x="100.3" y="140" fill="none" stroke="#0081BA" stroke-miterlimit="10" width="46.1" height="19.5"/>
		<rect x="152.8" y="140" fill="none" stroke="#0081BA" stroke-miterlimit="10" width="20.4" height="19.5"/>
		<rect x="179.6" y="140" fill="none" stroke="#0081BA" stroke-miterlimit="10" width="20.4" height="19.5"/>
		<rect x="206.4" y="140" fill="none" stroke="#0081BA" stroke-miterlimit="10" width="20.4" height="19.5"/>
		<rect x="233.2" y="140" fill="none" stroke="#0081BA" stroke-miterlimit="10" width="20.4" height="19.5"/>
		<rect x="259.9" y="140" fill="none" stroke="#0081BA" stroke-miterlimit="10" width="20.4" height="19.5"/>
		<rect x="286.7" y="140" fill="none" stroke="#0081BA" stroke-miterlimit="10" width="20.4" height="19.5"/>
		<rect x="313.5" y="140" fill="none" stroke="#0081BA" stroke-miterlimit="10" width="49.3" height="19.5"/>
		<rect x="100.3" y="165.1" fill="none" stroke="#0081BA" stroke-miterlimit="10" width="20.4" height="19.5"/>
		<rect x="127.6" y="165.1" fill="none" stroke="#0081BA" stroke-miterlimit="10" width="20.4" height="19.5"/>
		<rect x="154.8" y="165.1" fill="none" stroke="#0081BA" stroke-miterlimit="10" width="126.3" height="19.5"/>
		<rect x="288" y="165.1" fill="none" stroke="#0081BA" stroke-miterlimit="10" width="20.4" height="19.5"/>
		<rect x="315.2" y="165.1" fill="none" stroke="#0081BA" stroke-miterlimit="10" width="20.4" height="19.5"/>
		<rect x="342.4" y="165.1" fill="none" stroke="#0081BA" stroke-miterlimit="10" width="20.4" height="19.5"/>
	</g>
	<g>
		<path fill="none" stroke="#0081BA" stroke-miterlimit="10" d="M305.1,286.8v117.6c0,4.1-3.3,7.5-7.5,7.5h-60.4
			c-4.1,0-7.5-3.3-7.5-7.5V286.8c0-4.1,3.3-7.5,7.5-7.5h60.4C301.8,279.4,305.1,282.7,305.1,286.8z"/>
		<rect x="257.7" y="398.5" fill="none" stroke="#0081BA" stroke-miterlimit="10" width="19.4" height="6.4"/>
		<rect x="237.8" y="287.6" fill="none" stroke="#0081BA" stroke-miterlimit="10" width="59.2" height="103.4"/>
	</g>
	<g>
		<path fill="none" stroke="#0081BA" stroke-miterlimit="10" d="M206.4,290v183c0,5.9-4.8,10.6-10.6,10.6H75.5
			c-5.9,0-10.6-4.8-10.6-10.6V290c0-5.9,4.8-10.6,10.6-10.6h120.3C201.7,279.4,206.4,284.1,206.4,290z"/>
		<rect x="116.5" y="469.2" fill="none" stroke="#0081BA" stroke-miterlimit="10" width="38.3" height="6.4"/>
		<rect x="74" y="297.1" fill="none" stroke="#0081BA" stroke-miterlimit="10" width="123.3" height="165.6"/>
	</g>
</g>
</svg>
