<?xml version="1.0" encoding="utf-8"?>
<!-- Generator: Adobe Illustrator 18.0.0, SVG Export Plug-In . SVG Version: 6.00 Build 0)  -->
<!DOCTYPE svg PUBLIC "-//W3C//DTD SVG 1.1//EN" "http://www.w3.org/Graphics/SVG/1.1/DTD/svg11.dtd">
<svg version="1.1" id="Layer_1" xmlns="http://www.w3.org/2000/svg" xmlns:xlink="http://www.w3.org/1999/xlink" x="0px" y="0px"
	 viewBox="0 0 1200 500" enable-background="new 0 0 1200 500" xml:space="preserve">
<g opacity="0.5">
	<path fill="none" stroke="#FFFFFF" stroke-width="0.1" stroke-miterlimit="10" d="M72.2,269.3c105.8,0,105.8-86.9,211.7-86.9
		c105.8,0,105.8,61.3,211.7,61.3c105.8,0,105.8-61.3,211.7-61.3c105.8,0,105.8,53,211.7,53s105.8-53,211.7-53"/>
	<path fill="none" stroke="#FFFFFF" stroke-width="0.1" stroke-miterlimit="10" d="M72.2,276.3c105.8,0,105.8-91.3,211.7-91.3
		c105.8,0,105.8,72.2,211.7,72.2c105.8,0,105.8-72.2,211.7-72.2c105.8,0,105.8,60.7,211.7,60.7s105.8-56.2,211.7-56.2"/>
	<path fill="none" stroke="#FFFFFF" stroke-width="0.1" stroke-miterlimit="10" d="M72.2,283.3c105.8,0,105.8-95.2,211.7-95.2
		c105.8,0,105.8,82.4,211.7,82.4c105.8,0,105.8-83,211.7-83c105.8,0,105.8,72.2,211.7,72.2s105.8-63.2,211.7-63.2"/>
	<path fill="none" stroke="#FFFFFF" stroke-width="0.1" stroke-miterlimit="10" d="M72.2,290.3c105.8,0,105.8-98.3,211.7-98.3
		c105.8,0,105.8,92,211.7,92c105.8,0,105.8-93.2,211.7-93.2c105.8,0,105.8,78.5,211.7,78.5s105.8-65.8,211.7-65.8"/>
	<path fill="none" stroke="#FFFFFF" stroke-width="0.1" stroke-miterlimit="10" d="M72.2,297.4c105.8,0,105.8-101.5,211.7-101.5
		c105.8,0,105.8,101.5,211.7,101.5c105.8,0,105.8-103.5,211.7-103.5c105.8,0,105.8,88.2,211.7,88.2s105.8-71.6,211.7-71.6"/>
	<path fill="none" stroke="#FFFFFF" stroke-width="0.1" stroke-miterlimit="10" d="M72.2,304.4c105.8,0,105.8-104.7,211.7-104.7
		c105.8,0,105.8,107.9,211.7,107.9c105.8,0,105.8-109.8,211.7-109.8c105.8,0,105.8,94,211.7,94s105.8-74.2,211.7-74.2"/>
	<path fill="none" stroke="#FFFFFF" stroke-width="0.1" stroke-miterlimit="10" d="M72.2,311.4c105.8,0,105.8-107.3,211.7-107.3
		c105.8,0,105.8,113.7,211.7,113.7c105.8,0,105.8-116.2,211.7-116.2c105.8,0,105.8,99.9,211.7,99.9s105.8-76.9,211.7-76.9"/>
</g>
</svg>
