<?xml version="1.0" encoding="UTF-8" standalone="no"?>
<svg width="1059px" height="136px" viewBox="0 0 1059 136" version="1.1" xmlns="http://www.w3.org/2000/svg" xmlns:xlink="http://www.w3.org/1999/xlink" xmlns:sketch="http://www.bohemiancoding.com/sketch/ns">
    <!-- Generator: Sketch Beta 3.2.2 (9983) - http://www.bohemiancoding.com/sketch -->
    <title>stats-wave-white</title>
    <desc>Created with Sketch Beta.</desc>
    <defs></defs>
    <g id="Page-1" stroke="none" stroke-width="1" fill="none" fill-rule="evenodd" sketch:type="MSPage">
        <g id="stats-wave-white" sketch:type="MSLayerGroup" stroke-width="0.1" stroke="#FFFFFF" opacity="0.49504431">
            <g id="Group" sketch:type="MSShapeGroup">
                <path d="M0.2,87.3 C106,87.3 106,0.4 211.9,0.4 C317.7,0.4 317.7,61.7 423.6,61.7 C529.4,61.7 529.4,0.4 635.3,0.4 C741.1,0.4 741.1,53.4 847,53.4 C952.9,53.4 952.8,0.4 1058.7,0.4" id="Shape"></path>
                <path d="M0.2,94.3 C106,94.3 106,3 211.9,3 C317.7,3 317.7,75.2 423.6,75.2 C529.4,75.2 529.4,3 635.3,3 C741.1,3 741.1,63.7 847,63.7 C952.9,63.7 952.8,7.5 1058.7,7.5" id="Shape"></path>
                <path d="M0.2,101.3 C106,101.3 106,6.1 211.9,6.1 C317.7,6.1 317.7,88.5 423.6,88.5 C529.4,88.5 529.4,5.5 635.3,5.5 C741.1,5.5 741.1,77.7 847,77.7 C952.9,77.7 952.8,14.5 1058.7,14.5" id="Shape"></path>
                <path d="M0.2,108.3 C106,108.3 106,10 211.9,10 C317.7,10 317.7,102 423.6,102 C529.4,102 529.4,8.8 635.3,8.8 C741.1,8.8 741.1,87.3 847,87.3 C952.9,87.3 952.8,21.5 1058.7,21.5" id="Shape"></path>
                <path d="M0.2,115.4 C106,115.4 106,13.9 211.9,13.9 C317.7,13.9 317.7,115.4 423.6,115.4 C529.4,115.4 529.4,11.9 635.3,11.9 C741.1,11.9 741.1,100.1 847,100.1 C952.9,100.1 952.8,28.5 1058.7,28.5" id="Shape"></path>
                <path d="M0.2,122.4 C106,122.4 106,17.7 211.9,17.7 C317.7,17.7 317.7,125.6 423.6,125.6 C529.4,125.6 529.4,15.8 635.3,15.8 C741.1,15.8 741.1,109.8 847,109.8 C952.9,109.8 952.8,35.6 1058.7,35.6" id="Shape"></path>
                <path d="M0.2,129.4 C106,129.4 106,22.1 211.9,22.1 C317.7,22.1 317.7,135.8 423.6,135.8 C529.4,135.8 529.4,19.6 635.3,19.6 C741.1,19.6 741.1,119.5 847,119.5 C952.9,119.5 952.8,42.6 1058.7,42.6" id="Shape"></path>
            </g>
        </g>
    </g>
</svg>