<?xml version="1.0" encoding="utf-8"?>
<!-- Generator: Adobe Illustrator 18.0.0, SVG Export Plug-In . SVG Version: 6.00 Build 0)  -->
<!DOCTYPE svg PUBLIC "-//W3C//DTD SVG 1.1//EN" "http://www.w3.org/Graphics/SVG/1.1/DTD/svg11.dtd">
<svg version="1.1" id="Layer_1" xmlns="http://www.w3.org/2000/svg" xmlns:xlink="http://www.w3.org/1999/xlink" x="0px" y="0px"
	 viewBox="0 0 16 16" enable-background="new 0 0 16 16" xml:space="preserve">
<g>
	<polygon points="16,10 16,3.8 11.7,6.9 	"/>
	<polygon points="0,3.5 0,10.4 4.5,6.9 	"/>
	<path d="M5.3,6.3l0.8,0.6L8,8.4l2-1.5l0.8-0.6l4.8-3.5c0.1-0.1,0.2-0.1,0.3-0.1V2.5C16,1.7,15.3,1,14.5,1H1.5C0.8,1,0.1,1.6,0,2.3
		c0.1,0,0.2,0,0.3,0.1L5.3,6.3z"/>
	<path d="M10.9,7.5L8,9.6L5.3,7.5l-5,3.8c-0.1,0.1-0.2,0.1-0.3,0.1l0,0v1C0,13.3,0.7,14,1.5,14h12.9c0.9,0,1.5-0.7,1.5-1.5v-1.3
		c-0.1,0-0.2,0-0.3-0.1L10.9,7.5z"/>
</g>
</svg>
