<?xml version="1.0" encoding="utf-8"?>
<!-- Generator: Adobe Illustrator 18.0.0, SVG Export Plug-In . SVG Version: 6.00 Build 0)  -->
<!DOCTYPE svg PUBLIC "-//W3C//DTD SVG 1.1//EN" "http://www.w3.org/Graphics/SVG/1.1/DTD/svg11.dtd">
<svg version="1.1" id="Layer_1" xmlns="http://www.w3.org/2000/svg" xmlns:xlink="http://www.w3.org/1999/xlink" x="0px" y="0px"
	 viewBox="0 0 16 16" enable-background="new 0 0 16 16" xml:space="preserve">
<g>
	<path fill="none" d="M10.8,5c-0.2-0.8-0.5-1.7-1-2.3C9.4,2.3,8.8,2,8,2C7.3,2,6.7,2.3,6.2,2.8C5.7,3.3,5.4,4.2,5.2,5H10.8z"/>
	<path fill="none" d="M8,8C7.4,8,7,8.4,7,9v3c0,0.6,0.4,1,1,1s1-0.4,1-1V9C9,8.4,8.6,8,8,8z"/>
</g>
<path d="M12.9,5.2c-0.2-1.2-0.6-2.8-1.6-3.9C10.4,0.5,9.3,0,8,0C6.7,0,5.6,0.5,4.8,1.4C3.7,2.5,3.3,4,3.1,5.2C2.5,5.5,2,6.2,2,7v7
	c0,1.1,0.9,2,2,2h8c1.1,0,2-0.9,2-2V7C14,6.2,13.6,5.6,12.9,5.2z M8,2c0.8,0,1.3,0.2,1.8,0.7c0.5,0.6,0.8,1.4,1,2.3H5.2
	c0.2-0.8,0.5-1.7,1-2.2C6.7,2.3,7.3,2,8,2z M9,12c0,0.6-0.4,1-1,1s-1-0.4-1-1V9c0-0.6,0.4-1,1-1s1,0.4,1,1V12z"/>
</svg>
