<?xml version="1.0" encoding="utf-8"?>
<!-- Generator: Adobe Illustrator 18.1.0, SVG Export Plug-In . SVG Version: 6.00 Build 0)  -->
<svg version="1.1" id="Capa_1" xmlns="http://www.w3.org/2000/svg" xmlns:xlink="http://www.w3.org/1999/xlink" x="0px" y="0px"
	 viewBox="0 0 1280 800" enable-background="new 0 0 1280 800" xml:space="preserve">
<g id="Down">
	<g>
		<path fill="#FFFFFF" d="M640,0C419.1,0,240,179.1,240,400s179.1,400,400,400s400-179.1,400-400S860.9,0,640,0z M640,725
			c-179.2,0-325-145.8-325-325S460.8,75,640,75s325,145.8,325,325S819.2,725,640,725z M777.5,300c-11,0-20.7,4.8-27.5,12.2l-0.1-0.1
			L640,432L530.1,312.1l-0.1,0.1c-6.8-7.5-16.6-12.2-27.5-12.2c-20.7,0-37.5,16.8-37.5,37.5c0,9.8,3.8,18.6,9.9,25.3l-0.1,0.1
			l137.5,150c7.1,7.7,17.1,12.2,27.7,12.2s20.5-4.4,27.6-12.2l137.5-150l-0.1-0.1c6.1-6.7,10-15.5,10-25.3
			C815,316.8,798.2,300,777.5,300z"/>
	</g>
</g>
</svg>
