<?xml version="1.0" encoding="utf-8"?>
<!-- Generator: Adobe Illustrator 16.2.1, SVG Export Plug-In . SVG Version: 6.00 Build 0)  -->
<!DOCTYPE svg PUBLIC "-//W3C//DTD SVG 1.1//EN" "http://www.w3.org/Graphics/SVG/1.1/DTD/svg11.dtd">
<svg version="1.1"
	 id="Layer_1" xmlns:dc="http://purl.org/dc/elements/1.1/" xmlns:cc="http://creativecommons.org/ns#" xmlns:rdf="http://www.w3.org/1999/02/22-rdf-syntax-ns#" xmlns:svg="http://www.w3.org/2000/svg" xmlns:sodipodi="http://sodipodi.sourceforge.net/DTD/sodipodi-0.dtd" xmlns:inkscape="http://www.inkscape.org/namespaces/inkscape" sodipodi:docname="AJAX.svg" inkscape:version="0.48.1 "
	 xmlns="http://www.w3.org/2000/svg" xmlns:xlink="http://www.w3.org/1999/xlink" x="0px" y="0px" width="274.221px"
	 height="141.932px" viewBox="0 0 274.221 141.932" enable-background="new 0 0 274.221 141.932" xml:space="preserve">
<sodipodi:namedview  inkscape:cy="86.021911" inkscape:cx="123.12139" inkscape:zoom="3.4436855" fit-margin-left="0" fit-margin-top="0" showgrid="false" guidetolerance="10" gridtolerance="10" objecttolerance="10" bordercolor="#666666" pagecolor="#ffffff" borderopacity="1" id="namedview13" inkscape:current-layer="g3" inkscape:window-maximized="1" inkscape:window-y="-8" inkscape:window-x="-8" fit-margin-bottom="0" fit-margin-right="0" inkscape:window-height="1004" inkscape:pageshadow="2" inkscape:window-width="1280" inkscape:pageopacity="0">
	</sodipodi:namedview>
<g id="g3" transform="translate(-3.398,-4.0580012)">
	<path id="path7" inkscape:connector-curvature="0" fill="#3A3A3A" d="M171.651,4.07c11.112,5.687,17.561,16.604,17.561,29.979
		c0,11.201-5.846,18.742-14.671,25.26c0,0-6.602,5.083-10.201,7.527l26.892,31.799c0.802-1.093,11.805-11.123,11.805-11.123h69.886
		v-27.34h-69.999V35.605h74.662l0.034-31.525L171.651,4.07 M216.603,112.384l-7.614,7.573l21.58,25.964l47.016,0.058v-33.584
		L216.603,112.384z M132.592,4.07L60.216,4.058L3.398,145.99l48.05-0.068l9.291-26.282l45.02,0.012
		c-1.614-4.867-2.457-10.314-2.457-16.354c0-18.538,13.209-30.548,25.612-38.907c-5.8-6.722-14.199-16.899-14.199-30.751
		C114.714,20.354,121.146,9.654,132.592,4.07z M68.018,88.205l16.667-49.152l16.148,49.152H68.018z"/>
	<path id="path9" inkscape:connector-curvature="0" fill="#3A3A3A" d="M152.085,24.528c-6.249,0-9.467,4.083-9.467,9.474
		c0,4.254,3.531,8.325,7.545,13.057c1.598-0.979,4.812-3.265,4.812-3.265c3.694-2.615,6.579-5.72,6.579-9.792
		C161.555,28.611,158.017,24.528,152.085,24.528"/>
	<path id="path11" inkscape:connector-curvature="0" fill="#3A3A3A" d="M144.517,85.35c-6.534,5.096-11.202,11.043-11.202,19.005
		c0,9.178,8.769,18.788,18.202,19.459c6.414,0.454,13.146-1.979,18.201-6.482"/>
</g>
</svg>
