<svg xmlns:svg="http://www.w3.org/2000/svg" xmlns="http://www.w3.org/2000/svg" xmlns:xlink="http://www.w3.org/1999/xlink" version="1.1" x="0px" y="0px" width="235.735px" height="41.5px" viewBox="1468.366 258.5 235.735 41.5" enable-background="new 1468.366 258.5 235.735 41.5" xml:space="preserve"><g transform="matrix(1.3484642,0,0,1.3484642,-6.1476944,-327.95008)"><path fill="#D8D8D8" d="M1104.808 442.241h-3.601l0.02-3.845l-5.33 0.793v2.971l-2.421 0.366v2.36h2.502 l-0.02 10.355c0.017 0.4 0.6 3.7 4.3 3.52c4.125-0.242 4.476-0.713 4.842-0.957c-0.029 0 0-2.014 0-2.014l-2.238 0.1 c0 0-1.261-0.082-1.465-1.485c-0.007 0.001-0.041-9.44-0.041-9.44l3.499 0.02V442.241z"/><path fill="#D8D8D8" d="M1112.554 434.902l-7.196 1.033l0.01 1.373l1.912 0.855l0.021 17.974l-1.811 0.7 l0.02 1.475l8.829 0.01v-1.465l-1.78-0.773l0.01-10.63c0 0 1.007-0.448 2.401-0.448c1.393 0 2 0.9 2 1.4 c0 0.6 0 9.7 0 9.664l-1.627 0.722v1.485h8.809v-1.424l-1.811-0.886V445.13c0 0 0.041-3.458-3.966-3.286 c-2.439 0.015-4.166 0.784-5.865 2.126C1112.544 444 1112.5 434.9 1112.6 434.902z"/><path fill="#D8D8D8" d="M1139.398 450.715c0.204-3.546-0.167-9.201-7.322-8.862c-7.012 0.332-7.897 5.697-7.855 9.2 c0.403 5.6 3.3 7.7 8.7 7.768c4.286-0.143 5.841-2.402 5.841-2.402v-1.518c0 0-2.014 0.605-4.129 0.6 c-5.006-0.034-4.948-4.74-4.948-4.74H1139.398z M1129.688 448.829c0 0-0.03-2.286 0.426-3.737c0.364-1.159 1.099-1.541 1.947-1.543 c1.413-0.001 1.8 0.8 1.9 1.764c0.228 1.4 0.2 3.3 0.2 3.314L1129.688 448.829z"/></g><path fill="#7A7A7A" d="M1548.609 285.405h-8.614c0 0-1.29-0.137-1.345-1.454c-0.055-1.316 0.878-1.646 0.878-1.646 s1.838 0.5 3.8 0.549c1.92 0 9.464-0.796 9.464-7.325c0-2.966-2.331-4.664-2.331-4.664l4.172 1.118l-0.071-4.286l-6.021 1.1 c0 0-3.127-1.139-5.349-1.139c-1.496 0-9.205 0.592-9.486 7.36c-0.198 4.8 3.8 6.6 3.8 6.562s-3.841 2.359-3.867 5.3 c-0.027 2.8 3.2 3.7 3.4 3.755c0.01 0 0 0 0 0.004c0 0-0.006-0.002-0.016-0.004 c-0.31-0.01-5.252 0.919-5.252 4.393c0.001 3.3 5.5 4.9 11.3 4.966s12.208-1.619 12.208-8.505 C1555.303 284.6 1548.6 285.4 1548.6 285.405z M1543.095 270.275c2.675-0.014 2.7 2.8 2.7 3.924v2.071 c0 0 0.4 3.73-2.469 3.744c-2.826 0.014-2.743-2.167-2.743-3.744c0-1.578 0-2.442 0-2.442S1540.42 270.3 1543.1 270.275z M1543.108 297.366c-3.978 0-5.404-1.618-5.404-3.183c0-1.563 0.974-2.208 0.974-2.208l8.628-0.014c0 0 1.7 0.2 1.7 1.7 C1549.021 296 1547.1 297.4 1543.1 297.366z"/><path fill="#7A7A7A" d="M1564.986 267.82l-9.711 1.509v1.894l2.496 1.207v12.207c0 0 0.1 6 6 6.1 c4.773 0.1 7.16-3.265 7.16-3.265v3.21l9.41-1.125v-1.729l-2.404-1.389v-18.528l-9.666 1.509v1.812l2.551 1.289v13.031 c0 0-0.658 0.548-2.771 0.713c-2.111 0.165-3.072-1.838-3.072-1.838V267.82z"/><path fill="#7A7A7A" d="M1582.335 269.386c0 0 4.636-1.688 8.457-1.688c3.822 0 9.4 1.3 9.4 6.1 c0 4.8 0 13.2 0 13.172l2.366 1.241v1.571c0 0-1.688 0.912-4.171 0.912c-2.482 0-4.636-1.262-4.636-3.162 c-0.54 0.01-0.736 3.123-6.557 3.123c-6.79 0-6.266-6.014-6.266-6.13s-0.195-4.489 4.753-5.432c4.888-0.931 7.157-1.3 7.157-1.3 l-0.023-4.423c0 0-0.403-2.677-2.712-2.657c-2.308 0.02-2.288 0.039-2.288 0.039l-1.63 4.442h-3.821L1582.335 269.386z M1592.975 285.962v-5.976c0 0-4.869-0.437-4.879 3.463c-0.007 2.9 1.8 3.3 2.7 3.3 C1591.733 286.7 1592.4 286.3 1593 285.962z"/><path fill="#7A7A7A" d="M1612.441 267.62l-9.486 1.494v1.979l2.444 1.164v14.685l-2.27 1.164v1.861h12.492v-1.784 l-2.987-1.202l0.02-12.124c0 0 1.901-0.757 3.821-0.757c1.921 0 2.9 0.2 2.9 0.213v-6.343c0 0-4.065-1.273-6.944 4.4 C1612.402 272.4 1612.4 267.6 1612.4 267.62z"/><path fill="#7A7A7A" d="M1631.238 260.385v1.921l2.386 1.144v5.199c0 0-1.668-0.795-3.686-0.795 s-10.262 0.31-10.495 11.639c-0.232 11.3 8.6 11.2 8.5 11.174c-0.078 0 4 0.1 5.896-2.289 c-0.009 0-0.02 2.279-0.02 2.279l9.321-1.135v-1.844l-2.24-1.144l-0.02-27.662L1631.238 260.385z M1633.614 271.616v14.724 c0 0-0.77 0.388-2.202 0.388c-2.329 0-4.301-1.585-4.287-6.692c0.013-4.462 0.664-7.967 2.615-8.885 C1631.69 270.2 1633.5 271.5 1633.6 271.616z"/><path fill="#7A7A7A" d="M1653.762 262.484c0 2.188-1.776 3.965-3.965 3.965c-2.188 0-3.964-1.776-3.964-3.965 c0-2.188 1.776-3.964 3.964-3.964C1651.985 258.5 1653.8 260.3 1653.8 262.484z M1653.597 267.711l-9.849 1.399v1.893 l2.578 1.262v14.704l-2.359 1.07v2.003h11.852v-1.921l-2.249-1.098L1653.597 267.711z"/><path fill="#7A7A7A" d="M1658.093 269.361c0 0 4.636-1.688 8.458-1.688c3.821 0 9.3 1.3 9.3 6.1 c0 4.8 0 13.2 0 13.172l2.366 1.241v1.571c0 0-1.688 0.912-4.171 0.912c-2.482 0-4.636-1.262-4.636-3.162 c-0.539 0.01-0.735 3.123-6.557 3.123c-6.789 0-6.266-6.014-6.266-6.13s-0.195-4.489 4.753-5.432c4.888-0.931 7.157-1.3 7.157-1.3 l-0.023-4.423c0 0-0.403-2.677-2.711-2.657c-2.309 0.02-2.289 0.038-2.289 0.038l-1.63 4.442h-3.821L1658.093 269.361z M1668.732 285.936v-5.975c0 0-4.869-0.437-4.879 3.463c-0.007 2.9 1.8 3.3 2.7 3.3 C1667.491 286.6 1668.1 286.3 1668.7 285.936z"/><path fill="#7A7A7A" d="M1688.3 267.656l-9.684 1.536v1.838l2.606 1.234v14.814l-2.387 0.96v2.058h11.851v-2.03 l-2.194-1.043v-14.32c0 0 1.18-0.548 2.907-0.548c1.729 0 3.1 0.8 3.1 2.469s0 12.4 0 12.399l-2.432 1.195l-0.01 1.8 h12.07v-1.948l-2.359-0.987v-13.744c0 0 0.165-5.487-5.404-5.487c-5.568 0-8.011 2.936-8.011 2.936L1688.3 267.656z"/></svg>